<?xml version="1.0" standalone="no"?>
<!DOCTYPE svg PUBLIC "-//W3C//DTD SVG 20010904//EN"
 "http://www.w3.org/TR/2001/REC-SVG-20010904/DTD/svg10.dtd">
<svg version="1.0" xmlns="http://www.w3.org/2000/svg"
 width="2560.000000pt" height="1440.000000pt" viewBox="0 0 2560.000000 1440.000000"
 preserveAspectRatio="xMidYMid meet">
<metadata>
Created by potrace 1.16, written by Peter Selinger 2001-2019
</metadata>
<g transform="translate(0.000000,1440.000000) scale(0.100000,-0.100000)"
fill="#000000" stroke="none">
<path d="M0 12250 l0 -2150 53 0 c28 0 59 -4 67 -10 9 -5 19 -5 27 1 11 10
151 4 162 -6 2 -3 -4 -13 -13 -24 -16 -18 -16 -20 4 -34 32 -22 5 -38 -45 -27
-22 5 -54 7 -71 4 -18 -3 -40 -1 -50 4 -11 5 -45 13 -77 16 l-57 7 0 -714 c0
-621 2 -716 15 -721 19 -7 19 -26 0 -26 -12 0 -15 -15 -15 -77 0 -69 3 -81 24
-100 13 -13 37 -23 52 -23 24 -1 43 -17 106 -90 43 -49 78 -91 78 -94 0 -12
-59 27 -90 59 -53 56 -122 111 -148 119 l-22 7 0 -529 1 -529 24 5 c18 3 25 0
25 -11 0 -22 -18 -31 -35 -17 -13 11 -15 -440 -15 -3639 l0 -3651 9845 0 9845
0 2 68 c1 37 2 137 3 222 0 85 4 187 8 225 4 47 3 62 -3 45 -6 -17 -9 11 -8
95 0 66 -1 190 -4 275 -5 147 -7 158 -34 205 -24 42 -29 62 -31 140 -5 113
-22 436 -27 493 -3 41 -2 42 28 44 17 0 43 0 57 -1 113 -9 403 138 542 274 54
53 73 66 94 63 22 -2 28 2 37 29 6 17 35 62 64 100 138 179 205 293 241 408 7
22 35 101 62 176 27 75 49 140 49 145 0 6 -22 35 -50 66 -27 31 -50 60 -50 64
0 12 -91 94 -104 94 -7 0 -23 12 -37 26 -22 23 -24 34 -23 117 0 51 4 141 8
201 8 106 0 168 -27 204 -14 18 -4 24 54 30 28 2 53 10 55 16 2 6 13 72 23
146 11 74 35 236 54 360 19 124 40 265 47 315 6 49 13 91 14 92 2 2 26 -32 54
-75 108 -164 154 -224 167 -218 17 6 153 -150 178 -204 26 -59 31 -121 17
-221 -11 -78 -16 -92 -35 -99 -25 -10 -36 -57 -55 -230 -13 -120 -9 -151 19
-164 12 -5 24 -21 26 -35 3 -14 10 -45 15 -69 6 -23 10 -66 10 -96 0 -29 9
-95 20 -147 10 -52 24 -137 30 -189 6 -52 17 -120 25 -150 36 -141 48 -279 41
-495 -3 -126 -11 -234 -20 -270 l-14 -60 0 120 c-1 176 -4 214 -19 208 -9 -3
-13 5 -14 23 -1 16 -3 52 -5 79 -2 28 -4 68 -4 90 -1 37 -2 39 -16 21 -8 -11
-15 -17 -15 -13 -1 4 -3 12 -4 17 -1 6 -3 13 -4 18 -1 4 -9 -2 -17 -13 -15
-19 -16 -18 -9 14 5 23 4 31 -4 27 -6 -4 -11 -1 -11 7 0 8 -7 21 -16 28 -15
12 -16 11 -10 -9 6 -17 4 -21 -8 -16 -12 5 -14 -1 -10 -28 3 -18 6 -43 8 -55
2 -13 -3 -35 -12 -50 -10 -19 -16 -64 -18 -138 -1 -60 -5 -123 -8 -140 -3 -16
-8 -41 -11 -55 -3 -14 -7 -51 -9 -82 -2 -31 -6 -60 -8 -65 -3 -4 -4 -27 -3
-50 0 -24 -2 -43 -6 -43 -9 0 -17 -36 -24 -100 -8 -79 -10 -85 -23 -99 -8 -9
-12 -25 -8 -42 3 -18 0 -32 -11 -41 -14 -11 -15 -10 -8 11 5 16 4 21 -4 17 -6
-4 -11 -14 -11 -22 0 -8 -5 -14 -11 -14 -5 0 -8 4 -5 9 7 11 -22 36 -31 27 -3
-3 -1 -6 5 -6 19 0 14 -19 -14 -55 -22 -30 -23 -34 -7 -37 15 -3 13 -7 -12
-31 -29 -27 -75 -37 -75 -16 0 5 -4 8 -10 4 -5 -3 -6 -13 -3 -23 5 -14 3 -15
-8 -4 -7 6 -18 12 -24 12 -5 0 -4 -4 3 -9 10 -6 3 -16 -29 -37 -23 -16 -45
-36 -47 -44 -4 -12 -2 -13 9 -2 7 6 17 12 23 12 5 0 -5 -11 -23 -24 -18 -14
-39 -22 -46 -20 -10 4 -12 -1 -8 -15 3 -12 1 -21 -5 -21 -6 0 -13 8 -15 18 -4
16 -5 16 -6 0 0 -10 -3 -18 -6 -18 -13 0 -55 24 -55 32 0 5 -4 7 -10 3 -5 -3
-6 -13 -3 -23 6 -15 5 -15 -10 -4 -14 12 -19 11 -39 -8 -12 -11 -33 -23 -45
-26 -13 -4 -23 -10 -23 -14 0 -4 -9 -10 -20 -13 -13 -3 -20 0 -20 8 0 10 -6
11 -29 2 -17 -6 -27 -16 -24 -24 3 -8 -2 -13 -12 -13 -19 0 -55 -36 -55 -54 0
-6 -9 -19 -20 -29 -11 -9 -20 -14 -20 -10 0 3 -9 -2 -20 -12 -11 -10 -20 -15
-20 -10 0 4 -7 2 -16 -6 -10 -8 -14 -22 -10 -41 3 -15 1 -30 -5 -34 -7 -4 -6
-11 2 -20 11 -13 6 -18 -14 -15 -5 1 -6 -13 -2 -31 4 -22 3 -29 -3 -19 -8 11
-12 10 -19 -5 -11 -22 -1 -80 13 -77 5 0 15 -6 23 -14 11 -12 10 -15 -8 -20
-22 -6 -29 -23 -10 -23 8 0 8 -4 1 -12 -8 -10 -3 -13 19 -14 22 -1 29 3 25 13
-5 11 0 13 17 8 l22 -6 -22 20 c-13 10 -23 23 -23 27 0 4 11 -3 25 -16 28 -27
33 -60 9 -60 -14 0 -14 -3 -4 -15 10 -12 10 -15 -4 -15 -9 0 -16 -8 -16 -21 0
-11 -4 -18 -9 -15 -13 9 -23 -26 -11 -38 15 -15 12 -26 -6 -26 -14 0 -14 -1 0
-16 20 -20 21 -19 -11 -21 -15 0 -29 -6 -31 -12 -2 -5 -10 -7 -18 -4 -8 3 -14
0 -14 -7 0 -7 -9 -2 -19 11 l-20 24 6 -25 c3 -14 10 -31 16 -37 11 -14 31 -18
23 -4 -3 4 20 8 52 7 31 -1 60 3 64 8 5 7 8 3 8 -9 1 -20 1 -20 15 -1 19 25
28 16 16 -15 -15 -35 -49 -71 -61 -64 -5 3 -10 1 -10 -5 0 -7 -6 -10 -13 -7
-7 3 -21 -1 -30 -8 -16 -11 -15 -14 8 -29 25 -16 25 -17 8 -44 -14 -22 -15
-25 -2 -15 9 7 19 10 22 6 4 -3 7 1 7 9 0 9 6 21 14 27 8 7 18 25 21 41 7 30
52 86 62 76 3 -3 -1 -14 -10 -23 -13 -15 -40 -67 -105 -203 l-12 -25 4 28 c2
19 0 25 -6 19 -6 -6 -17 -8 -24 -5 -8 3 -14 0 -14 -6 0 -6 -7 -8 -17 -4 -10 4
-14 2 -10 -4 8 -13 -18 -37 -31 -29 -5 3 -18 -5 -28 -19 -10 -13 -21 -22 -25
-19 -9 5 -21 -25 -13 -37 3 -6 -6 -20 -20 -32 -21 -19 -25 -29 -20 -53 4 -22
1 -36 -11 -47 -9 -10 -12 -17 -7 -17 6 0 8 -10 4 -22 -4 -16 -2 -19 9 -13 11
6 11 5 2 -5 -38 -42 -152 -40 2863 -40 l2864 0 0 1105 c0 1057 -1 1105 -18
1105 -26 0 -42 20 -42 51 0 31 21 52 44 43 15 -6 16 97 16 1289 l0 1295 -46
-6 c-43 -4 -48 -2 -78 30 -59 67 -59 68 -57 272 0 37 8 94 17 127 15 54 15 61
0 100 -20 48 -15 72 19 87 34 15 55 52 59 101 2 23 8 47 14 53 16 16 40 3 44
-23 2 -12 9 -24 16 -27 9 -3 12 155 12 770 0 670 -2 777 -15 802 -9 16 -13 31
-10 34 2 3 -2 17 -9 31 -19 35 -32 75 -46 141 -7 30 -18 65 -26 77 -8 12 -14
31 -14 43 0 11 -4 20 -10 20 -5 0 -12 17 -15 38 -4 20 -14 55 -24 77 -10 22
-27 68 -37 102 -11 35 -22 63 -26 63 -4 0 -5 7 -2 15 4 8 1 15 -4 15 -6 0 -12
6 -15 13 -2 6 -2 -1 0 -16 5 -27 3 -28 -36 -26 -34 3 -42 7 -53 33 -7 17 -13
34 -13 38 0 15 -17 21 -24 9 -10 -15 -31 -6 -31 13 0 7 -11 18 -25 24 -14 6
-25 17 -25 23 0 8 -4 8 -15 -1 -12 -10 -15 -10 -15 4 0 9 -7 16 -15 16 -9 0
-12 -6 -8 -16 5 -14 3 -14 -15 2 -12 9 -19 21 -16 26 3 4 -1 5 -9 2 -8 -3 -21
3 -28 13 -9 11 -29 19 -53 20 -22 1 -42 7 -46 13 -5 9 -10 9 -14 2 -4 -6 -13
-9 -20 -6 -13 5 -30 -21 -22 -35 3 -4 -4 -8 -15 -8 -20 -2 -24 6 -11 23 4 6
-10 -8 -30 -29 -21 -22 -36 -43 -33 -47 7 -11 -5 -40 -16 -40 -5 0 -9 9 -9 21
0 11 -4 18 -10 14 -6 -3 -6 -15 0 -29 5 -13 6 -27 2 -31 -4 -4 2 -13 12 -21
19 -13 19 -14 0 -21 -21 -9 -28 -53 -8 -53 6 0 15 -7 18 -16 9 -23 7 -31 -3
-15 -14 21 -33 4 -21 -19 6 -12 6 -27 1 -42 -6 -13 -10 -19 -10 -14 -1 5 -10
1 -21 -9 -11 -10 -17 -22 -13 -28 3 -5 7 -25 8 -44 1 -20 -1 -29 -6 -21 -10
16 -16 10 -25 -26 -6 -24 -4 -28 9 -23 11 4 14 2 11 -8 -6 -16 40 -50 55 -41
5 4 13 2 16 -4 4 -6 1 -9 -6 -8 -6 2 -14 -3 -16 -10 -3 -9 1 -12 13 -10 11 2
20 -4 22 -14 2 -11 -3 -18 -11 -18 -9 0 -17 -3 -20 -7 -2 -5 -2 -3 -1 4 5 19
-12 24 -26 8 -16 -19 -6 -89 19 -124 25 -37 32 -59 19 -63 -8 -3 -6 -19 5 -54
10 -27 29 -94 43 -149 14 -55 34 -129 44 -165 25 -85 51 -200 51 -222 0 -10 5
-20 10 -23 5 -4 6 -11 3 -17 -4 -6 -2 -13 4 -17 6 -4 18 -54 27 -111 8 -58 17
-115 21 -126 5 -18 -3 -28 -40 -53 -25 -18 -46 -36 -46 -42 0 -8 -41 -30 -61
-33 -3 -1 -14 -9 -24 -19 -19 -19 -64 -42 -77 -39 -5 1 -8 -5 -8 -13 0 -8 -6
-12 -14 -9 -8 3 -20 -3 -27 -13 -8 -10 -27 -25 -44 -33 -60 -29 -139 -83 -158
-107 -11 -13 -22 -22 -25 -18 -7 6 -54 -23 -65 -42 -4 -7 -14 -13 -22 -13 -7
0 -26 -15 -42 -34 -15 -18 -47 -44 -70 -57 -24 -13 -43 -29 -43 -35 0 -7 -18
-21 -40 -32 -22 -10 -37 -22 -33 -26 3 -3 -4 -6 -16 -6 -17 0 -21 -4 -17 -15
3 -10 -1 -15 -14 -15 -10 0 -35 -9 -55 -21 -19 -12 -42 -19 -50 -15 -8 3 -24
-4 -34 -15 -11 -12 -24 -18 -30 -14 -6 3 -11 2 -11 -4 0 -6 -19 -16 -42 -22
-24 -7 -50 -19 -58 -28 -8 -10 -40 -30 -70 -47 -30 -16 -61 -34 -68 -41 -6 -6
-33 -22 -59 -35 -26 -13 -54 -36 -62 -51 -10 -18 -22 -26 -33 -23 -17 4 -56
-21 -96 -62 -12 -12 -29 -22 -37 -22 -8 0 -15 -4 -15 -10 0 -5 -6 -10 -14 -10
-12 0 -26 -11 -118 -96 -20 -19 -44 -34 -52 -34 -9 0 -25 -9 -36 -20 -11 -11
-24 -20 -30 -20 -5 0 -10 -5 -10 -11 0 -5 -5 -7 -10 -4 -14 9 -47 -3 -48 -18
-3 -43 -13 -110 -18 -118 -7 -13 -61 -11 -69 2 -4 6 -7 26 -8 45 -1 20 -6 34
-14 34 -15 0 -95 98 -123 150 -10 19 -35 46 -54 59 -43 28 -76 78 -76 114 0
14 9 42 21 61 14 24 18 43 14 58 -12 40 -62 142 -80 163 l-17 20 8 -20 c3 -11
14 -44 22 -73 19 -64 13 -71 -60 -70 -26 0 -51 -3 -56 -6 -6 -3 -72 -6 -148
-7 -77 0 -155 -5 -175 -11 -26 -7 -42 -7 -58 2 -22 11 -22 12 -4 32 10 11 31
27 46 35 23 12 27 19 24 46 -2 24 -9 33 -25 35 -24 4 -52 37 -52 63 0 9 9 24
20 34 17 16 24 16 44 5 13 -7 26 -20 29 -30 5 -18 131 -84 150 -77 7 2 -6 12
-28 21 -41 17 -95 81 -95 112 0 13 7 15 29 11 22 -5 34 0 51 19 26 27 82 36
60 9 -17 -20 -1 -19 21 1 16 15 20 15 50 0 37 -18 53 -21 44 -6 -16 25 -144
70 -200 70 -14 0 -43 -7 -65 -16 -32 -13 -43 -14 -55 -4 -16 14 -35 5 -35 -16
0 -15 -8 -17 -50 -15 -15 1 -46 -13 -75 -34 -27 -19 -54 -35 -58 -35 -5 0 -23
-11 -40 -24 -54 -39 -60 -41 -52 -16 7 21 5 22 -21 16 -16 -4 -42 -21 -57 -39
-15 -18 -41 -48 -58 -67 -56 -67 -97 -73 -119 -19 -7 16 -16 29 -21 29 -5 0
-9 7 -9 15 0 8 -9 15 -21 15 -11 0 -17 4 -14 10 8 13 -19 52 -30 42 -5 -4 -5
-1 0 7 9 15 -47 71 -72 71 -7 0 -16 8 -19 18 -13 40 -50 111 -58 112 -18 0
-35 34 -24 48 8 9 7 11 -7 6 -14 -6 -16 -3 -10 14 5 16 2 22 -9 22 -9 0 -15 3
-14 7 1 5 -6 23 -16 42 -10 18 -13 30 -7 27 16 -10 13 5 -5 25 -9 10 -16 34
-17 53 -1 20 -4 36 -8 36 -4 0 -9 9 -12 20 -3 11 -1 18 3 15 4 -3 6 4 3 15 -3
11 -9 17 -14 14 -10 -6 -13 23 -10 69 1 16 -3 34 -9 42 -14 17 -18 15 172 95
82 34 150 65 152 69 3 4 1 13 -4 21 -8 13 -16 12 -57 -4 -26 -10 -60 -21 -75
-23 -23 -4 -28 -2 -28 16 0 31 -16 26 -29 -9 -7 -23 -16 -30 -35 -30 -18 0
-26 -5 -26 -17 0 -13 -4 -11 -14 8 -11 22 -11 37 0 88 7 34 13 89 13 122 l0
61 -35 -46 c-18 -24 -34 -48 -34 -52 0 -4 -11 -21 -23 -38 -13 -17 -39 -58
-57 -91 -89 -164 -136 -246 -175 -305 -72 -109 -185 -306 -185 -321 0 -9 -7
-24 -15 -35 -14 -18 -15 -16 -14 26 1 25 -6 95 -15 155 -9 61 -18 124 -19 141
-2 17 -7 35 -10 40 -3 5 -8 36 -11 69 -3 33 -8 69 -12 79 -6 15 -4 17 7 11 11
-6 10 -4 -2 11 -8 10 -25 64 -38 119 -45 202 -66 282 -92 359 -25 74 -28 116
-8 116 5 0 9 -2 9 -4 0 -2 25 -75 55 -161 30 -87 55 -167 55 -177 0 -10 5 -19
10 -19 27 -5 35 -3 35 6 0 6 13 23 28 39 15 16 27 40 27 53 0 13 7 26 15 29
10 4 13 14 8 32 -5 20 -3 24 9 19 21 -8 18 22 -5 46 -27 27 -16 30 28 7 47
-24 63 -25 84 -5 60 55 141 142 141 152 0 8 12 10 35 6 21 -3 35 -2 35 5 0 6
25 46 55 90 30 44 55 83 55 86 0 3 24 41 53 84 29 42 65 99 80 125 38 70 75
223 92 385 l7 62 48 0 c45 0 51 -4 151 -92 219 -193 311 -284 356 -350 54 -81
65 -83 144 -30 89 60 164 141 210 228 23 43 49 87 57 97 17 20 10 38 -41 112
-15 22 -38 56 -51 75 -25 37 -109 103 -119 93 -7 -6 -67 54 -67 68 0 5 -54 52
-120 105 -66 53 -120 100 -120 106 0 5 10 8 23 6 14 -2 23 -11 25 -25 2 -16
10 -23 26 -23 36 0 37 10 5 52 -33 41 -32 61 1 40 24 -15 24 -14 4 26 -18 37
-10 60 13 40 14 -12 15 -9 8 27 -4 22 -8 95 -9 162 l-2 123 58 57 c45 44 58
64 58 88 1 23 18 50 73 113 64 74 92 97 247 195 288 183 409 240 755 355 165
55 354 121 420 146 180 70 311 120 395 150 56 19 93 41 140 83 36 30 66 59 68
63 2 4 -6 10 -18 13 -22 6 -22 7 -26 197 -1 79 -21 249 -38 335 -2 11 -7 46
-11 78 -4 31 -12 57 -18 57 -6 0 -7 -18 -4 -47 l7 -48 -21 28 c-12 15 -30 27
-43 27 -32 0 -39 11 -17 27 18 12 18 15 5 43 -9 16 -13 43 -11 59 3 19 0 35
-9 42 -11 9 -11 15 -3 25 16 20 4 45 -18 37 -10 -4 -22 -13 -27 -21 -11 -18
-68 -42 -103 -42 -15 0 -41 -9 -58 -20 -37 -24 -45 -25 -45 -2 0 10 13 23 30
31 33 14 36 38 4 33 -10 -2 -38 -16 -62 -33 -23 -16 -46 -29 -51 -29 -9 0 -21
-24 -21 -41 0 -5 8 -9 18 -9 12 -1 8 -8 -18 -30 -42 -37 -63 -38 -78 -4 -10
20 -17 24 -35 18 -12 -3 -25 -12 -29 -19 -9 -15 -66 -40 -74 -32 -8 8 -64 -13
-64 -25 0 -5 -4 -7 -8 -4 -10 6 -103 -58 -115 -79 -10 -19 -8 -19 37 0 26 11
42 13 56 5 29 -15 47 -12 24 5 -19 14 -18 14 4 15 17 0 22 -6 22 -25 0 -24 -9
-29 -47 -28 -6 0 -9 -5 -7 -11 3 -7 -7 -18 -21 -24 -33 -15 -36 -15 -29 3 4 8
2 15 -2 15 -16 -1 -54 -38 -54 -52 0 -8 -33 -31 -73 -51 -114 -59 -137 -75
-131 -92 4 -9 1 -15 -8 -15 -16 0 -47 -29 -46 -44 0 -5 -42 -41 -94 -80 -52
-39 -122 -93 -156 -121 -54 -43 -59 -51 -41 -55 19 -5 15 -11 -32 -50 -29 -25
-64 -56 -77 -69 l-23 -25 -6 22 c-3 12 -7 22 -10 22 -7 0 -58 -33 -68 -45 -5
-6 -39 -30 -75 -54 -36 -24 -77 -57 -91 -74 -26 -30 -59 -45 -59 -26 0 13 41
51 140 129 45 36 109 88 142 115 33 28 73 59 89 71 43 31 148 133 167 162 9
14 17 32 19 41 1 9 7 17 14 20 7 2 29 20 48 40 40 40 79 64 91 56 28 -17 70
41 70 95 0 23 -5 33 -19 37 -19 5 -19 5 0 24 23 23 30 24 22 2 -4 -11 -3 -14
5 -9 7 4 12 13 12 21 0 8 16 27 37 42 20 15 52 44 72 63 37 38 126 97 174 118
15 6 37 28 48 47 16 27 28 35 48 35 16 0 46 13 67 28 21 16 73 51 114 79 92
64 154 119 146 132 -4 6 -14 7 -24 4 -16 -6 -16 -6 1 11 21 21 22 27 2 20 -10
-4 -15 0 -15 15 0 12 -4 21 -10 21 -5 0 -10 -4 -10 -10 0 -5 -5 -10 -11 -10
-6 0 8 22 30 49 33 40 38 51 27 60 -17 14 -40 6 -86 -29 -19 -15 -93 -67 -165
-115 -71 -48 -141 -96 -155 -107 -14 -10 -91 -67 -171 -126 -282 -206 -414
-311 -434 -344 -11 -18 -45 -79 -75 -135 -53 -99 -60 -106 -215 -245 -88 -78
-173 -155 -190 -171 -23 -21 -37 -27 -60 -24 -16 3 -140 50 -275 104 -220 90
-245 102 -256 129 -11 25 -13 26 -19 11 -6 -14 -10 -15 -21 -6 -8 6 -14 17
-14 24 0 7 -7 16 -16 19 -13 5 -15 1 -10 -20 6 -23 4 -25 -11 -19 -28 11 -126
45 -130 45 -2 0 -1 -5 3 -12 5 -8 2 -9 -12 -2 -10 5 -43 8 -72 7 -46 -1 -52 1
-47 17 4 13 -3 21 -25 30 -16 7 -36 10 -44 7 -8 -3 -25 2 -38 12 -27 21 -102
41 -151 41 -19 0 -51 7 -72 16 -20 8 -39 13 -42 10 -5 -5 -47 12 -143 58 -39
19 -70 32 -70 29 0 -3 -6 -1 -13 5 -21 18 -97 40 -103 31 -11 -19 6 -47 26
-42 14 4 20 0 20 -11 0 -9 4 -16 9 -16 16 0 23 -64 21 -197 -1 -91 2 -133 9
-133 6 0 11 5 11 10 0 6 5 10 11 10 6 0 8 -8 4 -19 -4 -14 2 -21 24 -30 16 -7
39 -23 51 -36 l21 -22 -21 -39 c-12 -22 -37 -53 -56 -71 -19 -18 -34 -37 -34
-44 0 -24 -93 -199 -106 -199 -8 0 -14 6 -14 13 0 8 -8 22 -19 31 -10 9 -21
30 -24 46 -5 21 -15 32 -42 41 -32 12 -48 29 -26 29 12 0 -25 76 -49 100 -10
10 -26 30 -36 45 -9 14 -21 24 -27 22 -5 -1 -23 10 -39 25 -17 15 -35 28 -41
28 -5 0 -30 16 -53 36 -24 19 -45 32 -45 27 -1 -4 -2 -12 -4 -18 -1 -5 -3 -18
-3 -27 -1 -10 -9 -18 -18 -18 -17 0 -44 23 -44 38 0 5 -16 17 -35 28 -20 10
-35 26 -35 36 0 11 -8 18 -20 18 -11 0 -24 9 -28 19 -4 11 -11 21 -17 22 -27
4 -60 22 -75 39 -15 17 -19 18 -36 5 -15 -11 -17 -18 -8 -32 22 -39 8 -49 -69
-48 -62 0 -72 2 -71 17 1 13 -4 17 -20 14 -11 -2 -15 -1 -8 1 18 7 15 21 -8
28 -11 3 -20 13 -20 22 0 10 -6 14 -20 10 -15 -4 -20 0 -20 14 0 10 4 19 10
19 5 0 21 9 34 21 19 16 22 26 17 52 -5 21 -14 33 -26 35 -20 4 -20 4 -1 -11
19 -14 19 -15 -4 -22 -16 -5 -25 -3 -32 9 -5 9 -13 16 -18 16 -6 0 -19 9 -30
20 -11 11 -30 20 -41 20 -42 0 -102 24 -107 42 -3 13 -10 17 -24 12 -11 -3
-34 3 -54 15 -20 12 -40 18 -45 15 -6 -3 -16 2 -23 11 -9 13 -22 16 -50 12
-21 -3 -42 -11 -46 -18 -5 -6 -16 -9 -25 -5 -15 5 -14 8 6 26 13 11 18 19 12
20 -22 0 -14 18 10 23 21 3 21 4 2 11 -11 4 -27 12 -35 17 -8 5 -23 12 -33 16
-11 3 -16 12 -12 23 3 10 -4 24 -17 36 -14 12 -18 13 -10 3 11 -14 9 -16 -13
-11 -14 2 -25 6 -25 9 0 2 16 21 35 41 19 20 35 45 35 54 0 9 10 18 23 21 21
3 20 4 -8 16 -21 9 -26 14 -16 20 7 5 21 6 31 4 10 -3 32 3 49 12 28 14 32 20
26 45 -3 15 -2 46 4 67 6 21 12 56 13 79 2 29 7 41 18 40 10 -1 14 7 13 24 -2
37 -14 141 -19 175 -3 17 -4 45 -4 64 0 19 -4 48 -11 63 -6 16 -10 30 -8 32 2
3 29 -6 59 -19 34 -14 81 -24 123 -26 66 -4 68 -3 83 26 8 17 19 34 24 39 14
14 37 -10 44 -45 5 -27 8 -30 21 -19 13 11 18 10 30 -6 8 -10 15 -23 15 -28 0
-5 3 -6 7 -3 3 4 14 -5 23 -21 21 -33 104 -83 93 -56 -5 14 -2 16 20 10 16 -4
27 -2 27 4 0 5 9 10 19 10 11 0 22 4 26 10 3 5 11 7 18 4 7 -2 22 5 34 16 24
22 43 26 43 10 0 -6 10 -2 22 9 11 11 25 18 30 15 4 -3 8 0 8 5 0 7 17 10 40
8 22 -2 40 -1 40 2 0 10 52 31 61 25 5 -3 9 3 9 13 0 15 2 15 9 4 7 -11 13
-12 23 -4 7 6 27 9 45 7 18 -2 35 1 38 6 3 5 12 7 20 3 8 -3 15 0 15 7 0 10 3
10 14 1 11 -9 17 -8 29 4 9 8 18 11 21 6 7 -11 76 -10 76 1 0 4 16 6 36 4 19
-1 37 2 41 6 3 5 13 2 23 -7 11 -10 20 -12 24 -6 4 5 14 10 24 10 25 1 56 6
67 12 6 3 35 5 67 5 32 -1 56 3 55 9 -3 14 45 6 64 -11 18 -16 29 -9 29 18 0
10 5 18 10 18 6 0 10 -5 10 -11 0 -8 5 -8 15 1 23 19 75 23 75 5 0 -8 4 -15 9
-15 5 0 17 -3 27 -7 11 -4 15 -3 10 5 -5 8 1 8 24 0 23 -8 35 -7 43 1 15 15
27 14 27 -2 0 -10 13 -11 64 -2 35 5 67 13 71 17 4 4 13 4 20 2 7 -3 23 -1 34
6 15 8 21 8 21 0 0 -7 9 -5 22 4 12 9 35 16 50 16 15 0 51 9 79 19 49 19 79
19 79 0 0 -5 5 -9 12 -9 9 0 9 3 0 12 -7 7 -12 15 -12 19 0 7 88 20 132 19 16
0 45 11 66 25 23 15 46 23 56 19 9 -3 22 -1 30 5 7 6 20 9 28 6 8 -3 27 6 44
20 16 14 40 28 54 32 37 9 44 15 29 24 -10 6 -6 9 13 9 14 0 28 -6 31 -12 4
-10 7 -10 18 0 17 16 73 17 63 0 -4 -7 -3 -8 5 -4 6 4 9 11 6 16 -5 8 20 23
40 25 6 0 21 10 34 22 13 12 27 20 31 18 5 -3 10 2 13 9 3 8 24 20 46 27 23 7
41 16 41 22 0 5 9 7 20 4 11 -3 20 -2 20 3 0 8 38 23 53 21 4 -1 7 4 7 9 0 6
8 10 18 10 9 0 28 9 41 19 17 13 31 17 46 11 13 -5 28 -3 40 6 23 17 57 18 74
2 11 -10 14 -10 18 0 3 6 10 12 18 12 7 0 18 6 24 14 9 11 20 12 44 5 18 -5
33 -9 34 -9 1 0 0 7 -4 16 -5 14 -3 15 16 5 16 -9 31 -9 54 -2 18 6 50 13 71
16 22 2 42 8 45 13 14 21 45 29 79 21 23 -5 41 -4 49 2 7 6 17 8 22 5 5 -4 12
-3 14 1 3 5 20 7 39 6 18 -1 41 -2 51 -2 11 -1 15 -6 11 -13 -5 -7 -3 -8 7 -3
22 14 63 11 76 -5 8 -10 12 -11 13 -3 0 9 14 12 43 9 23 -1 48 1 55 7 8 6 12
6 12 -2 0 -7 5 -9 11 -6 6 4 16 -1 24 -11 10 -14 10 -21 2 -26 -13 -8 -19 -66
-7 -73 5 -3 12 0 15 6 5 6 13 3 22 -11 9 -12 24 -20 36 -19 30 3 57 -10 57
-28 0 -8 -4 -11 -10 -8 -5 3 -10 1 -10 -5 0 -7 8 -9 19 -5 12 3 21 0 25 -10 3
-8 10 -15 16 -15 6 0 9 4 6 9 -3 5 6 11 19 14 14 2 28 0 32 -6 3 -5 32 -7 70
-4 55 4 65 2 77 -15 12 -17 18 -18 36 -8 12 7 33 10 46 7 13 -2 24 0 24 5 0 5
5 6 11 2 6 -3 15 -1 19 5 4 7 19 13 34 15 16 2 32 9 37 17 7 11 10 9 15 -8 4
-13 10 -23 15 -23 5 0 4 11 -1 24 -11 29 -5 36 31 36 15 0 29 7 33 16 8 21 -1
34 -19 27 -8 -3 -15 0 -15 5 0 17 30 42 51 42 14 0 27 18 48 65 16 36 34 65
40 65 6 0 8 6 5 14 -3 9 7 24 25 37 31 23 42 44 19 36 -7 -2 -25 0 -40 4 -15
4 -42 4 -60 -1 -73 -18 -88 -20 -88 -11 0 18 43 52 51 40 8 -13 16 -1 14 21
-1 20 25 39 52 40 12 0 24 4 27 9 3 5 23 12 43 15 43 7 76 13 83 16 3 1 13 2
23 1 9 -1 17 3 17 9 0 7 6 10 14 7 8 -3 16 -1 18 5 2 6 21 12 41 12 21 1 36 5
33 11 -5 14 37 14 46 1 4 -5 37 -12 74 -14 75 -5 98 -21 109 -78 7 -39 22 -53
66 -58 18 -2 35 -9 37 -15 2 -6 7 -9 12 -6 12 7 35 -26 54 -77 10 -27 21 -48
25 -48 4 0 16 -16 27 -35 10 -19 21 -35 24 -35 14 0 53 -85 52 -112 0 -15 3
-26 7 -23 5 2 6 -8 3 -23 -3 -15 -1 -24 3 -20 10 10 45 -60 45 -92 0 -14 7
-35 15 -47 8 -12 12 -28 9 -37 -4 -11 -1 -16 10 -16 17 0 21 -19 17 -79 -2
-22 1 -31 8 -27 7 5 11 -1 11 -14 0 -12 7 -29 16 -37 11 -12 12 -18 4 -23 -8
-5 -8 -10 -2 -14 5 -3 13 -22 16 -41 4 -19 10 -35 14 -35 4 0 13 -15 20 -32 8
-18 18 -43 24 -55 6 -12 8 -31 5 -42 -3 -11 1 -25 9 -32 8 -6 12 -15 9 -19 -2
-4 4 -22 14 -41 10 -19 24 -60 31 -92 8 -32 17 -60 22 -63 4 -3 8 -18 8 -35 0
-16 5 -29 10 -29 6 0 10 -11 10 -24 0 -14 5 -28 10 -31 5 -3 10 -16 10 -28 0
-13 9 -31 21 -40 11 -10 18 -24 15 -32 -6 -18 22 -75 37 -75 8 0 8 -3 2 -8 -5
-4 -10 -18 -11 -31 -1 -21 1 -22 11 -7 13 17 26 22 24 9 -4 -27 4 -55 20 -70
20 -19 36 -60 33 -80 -2 -6 2 -14 8 -18 7 -4 10 644 10 2004 l0 2011 -12800 0
-12800 0 0 -2150z m13853 455 c0 -16 -2 -55 -4 -85 -3 -68 -17 -97 -86 -182
-47 -58 -59 -67 -91 -70 -36 -3 -37 -4 -42 -48 -6 -53 -45 -109 -97 -140 -31
-18 -35 -24 -30 -49 7 -35 -9 -45 -52 -30 -24 8 -32 19 -37 46 -4 21 -2 39 5
46 6 6 11 17 11 24 0 22 71 127 107 157 19 15 47 56 63 90 18 37 48 78 75 103
25 22 45 49 45 60 0 11 20 41 44 67 33 36 50 47 67 44 20 -2 24 -9 22 -33z
m-4232 -58 c9 -7 23 -26 32 -44 14 -26 24 -32 54 -35 36 -3 38 -5 41 -41 2
-21 9 -40 15 -42 7 -2 25 -6 40 -10 21 -4 33 -16 44 -43 8 -20 21 -40 29 -45
7 -4 27 -35 44 -69 37 -73 34 -101 -13 -121 -57 -26 -68 -27 -95 -13 -15 8
-46 17 -67 21 -45 8 -105 44 -105 62 0 7 -17 17 -37 22 -47 13 -224 133 -280
190 -38 39 -52 61 -38 61 14 0 123 -66 142 -86 12 -13 30 -24 40 -24 25 -1 50
-22 62 -52 7 -20 21 -28 59 -38 27 -6 73 -27 101 -45 45 -30 51 -32 51 -15 0
10 -22 46 -50 79 -27 33 -50 64 -50 68 0 4 -13 17 -28 27 -16 10 -49 49 -74
85 -51 73 -51 101 0 101 15 0 34 5 42 10 19 12 21 12 41 -3z m9764 -78 c4 -5
14 -9 23 -7 10 2 28 -10 43 -29 15 -18 30 -29 33 -25 4 4 14 -1 21 -12 8 -10
18 -15 24 -12 5 4 17 -9 27 -29 20 -42 31 -50 48 -36 10 8 16 5 25 -15 6 -14
9 -30 6 -35 -4 -5 4 -8 17 -6 20 2 23 -2 23 -36 0 -36 7 -42 43 -38 6 1 12 -3
12 -9 0 -6 5 -8 10 -5 6 3 10 -1 10 -10 0 -10 7 -15 18 -14 39 5 72 -31 40
-44 -8 -3 -7 -6 4 -6 9 -1 20 -10 23 -21 3 -11 11 -20 16 -20 6 0 7 -5 4 -10
-4 -6 -11 -8 -16 -5 -5 4 -17 -1 -26 -11 -16 -16 -16 -16 6 -9 22 7 23 5 17
-20 -4 -17 -3 -24 4 -20 5 3 10 1 10 -4 0 -6 6 -11 14 -11 8 0 17 -6 20 -12 5
-10 7 -10 12 0 9 20 27 14 21 -8 -3 -11 -1 -23 4 -26 5 -3 9 -10 9 -16 0 -6
-6 -5 -16 3 -14 11 -16 9 -13 -21 2 -40 -19 -92 -35 -87 -6 2 -11 20 -11 40 0
28 -4 37 -17 37 -14 0 -16 -7 -11 -35 4 -28 1 -39 -13 -50 -18 -14 -18 -14 3
-15 12 0 23 5 25 12 3 7 7 8 11 2 10 -17 -9 -36 -37 -36 -17 0 -26 -6 -26 -16
0 -13 -3 -13 -12 -4 -17 17 -28 15 -28 -5 -1 -14 -4 -12 -15 7 -9 16 -15 19
-15 10 -1 -8 -8 -42 -15 -75 l-14 -60 3 70 c2 39 2 57 -1 40 -4 -35 -10 -50
-48 -130 -38 -77 -194 -237 -262 -267 -39 -17 -58 -19 -116 -14 l-69 6 6 -27
c3 -16 8 -67 10 -114 3 -47 8 -93 12 -102 3 -9 2 -17 -3 -17 -5 0 -7 -18 -5
-40 3 -25 0 -40 -7 -40 -6 0 -11 -9 -11 -20 0 -23 -15 -27 -24 -5 -3 8 -11 15
-17 15 -7 0 -21 7 -31 17 -16 14 -18 14 -18 1 0 -9 7 -21 16 -29 11 -9 14 -22
9 -48 -4 -20 -10 -40 -13 -46 -4 -5 -5 -17 -4 -26 2 -9 -4 -19 -13 -22 -8 -4
-15 -17 -15 -31 0 -14 -4 -28 -10 -31 -5 -3 -10 -13 -10 -22 0 -13 3 -13 15
-3 18 15 34 5 18 -11 -6 -6 -20 -8 -32 -4 -16 5 -21 15 -21 40 0 38 -15 55
-23 26 -4 -15 -11 -18 -27 -14 -24 6 -23 -2 4 -36 16 -20 13 -84 -4 -98 -22
-18 -30 -16 -30 7 0 16 -7 20 -32 20 -31 0 -31 0 -12 -21 19 -21 18 -21 -5
-40 -31 -25 -35 -25 -62 16 -13 19 -27 35 -31 35 -12 0 -9 -25 3 -37 9 -9 4
-18 -17 -37 -55 -48 -71 -52 -94 -25 -14 17 -18 19 -14 6 8 -22 -24 -60 -43
-53 -8 3 -16 -1 -19 -9 -7 -18 -41 -20 -47 -2 -4 10 -7 10 -18 0 -7 -7 -32
-13 -55 -13 -26 0 -51 -7 -65 -19 -21 -17 -25 -17 -46 -4 -16 11 -27 12 -36 5
-6 -6 -28 -12 -47 -14 -32 -3 -35 -1 -32 22 2 14 0 21 -5 17 -4 -5 -8 -14 -8
-20 0 -7 -8 -13 -17 -15 -26 -5 -22 13 6 32 14 8 27 24 31 35 4 13 12 18 23
15 13 -5 14 -4 3 4 -10 7 -10 14 -2 30 15 27 14 37 -1 25 -9 -7 -22 -5 -40 7
-22 13 -25 19 -15 29 10 10 6 11 -18 5 -16 -4 -31 -8 -33 -9 -1 -1 15 -14 35
-28 l37 -26 -47 1 c-26 0 -47 4 -47 9 0 5 6 9 13 9 8 0 7 4 -3 10 -8 5 -36 10
-62 10 -27 0 -48 5 -48 10 0 6 9 10 19 10 11 0 23 5 26 10 3 6 0 10 -9 10 -8
0 -27 7 -43 14 -15 8 -37 18 -48 22 -16 6 -12 9 20 14 32 5 36 8 20 14 -86 33
-95 41 -81 71 10 23 46 38 95 39 8 1 16 7 19 15 3 9 -1 11 -17 6 -18 -5 -21
-2 -21 21 0 26 1 26 19 10 18 -16 19 -16 24 11 3 15 1 33 -4 39 -5 6 -6 14 -2
18 4 4 -1 4 -12 0 -17 -7 -18 -6 -7 8 10 13 10 19 -3 31 -8 9 -15 20 -15 26 0
17 22 24 30 10 18 -28 22 56 5 99 -13 32 -14 46 -6 56 13 15 6 42 -17 69 -10
11 -11 17 -4 17 7 0 11 12 10 26 -2 20 -12 31 -38 43 -33 14 -40 17 -65 20 -5
1 -4 5 4 10 12 8 12 12 2 25 -16 19 -1 50 47 91 32 28 34 33 21 53 -17 27 -10
33 66 57 38 12 53 20 40 22 -11 2 -31 6 -45 9 l-25 6 22 16 c13 9 24 27 26 39
10 68 382 343 463 343 10 0 26 -8 37 -17 15 -13 21 -15 24 -5 6 17 33 15 33
-2 0 -8 7 -16 15 -20 23 -8 18 -26 -7 -26 -19 -1 -17 -3 11 -15 28 -13 31 -17
21 -30 -10 -13 -8 -19 14 -36 31 -24 34 -43 6 -36 -38 10 -20 -12 19 -24 24
-7 37 -17 35 -24 -3 -7 10 -19 29 -29 21 -10 37 -26 41 -41 4 -14 11 -25 16
-25 14 0 12 -28 -2 -33 -10 -3 -10 -7 -2 -18 6 -8 15 -25 19 -39 8 -25 7 -25
-13 -7 -20 18 -21 18 -32 -2 -7 -15 -8 -27 0 -40 5 -11 10 -30 10 -43 0 -25
67 -88 94 -88 19 0 21 23 4 50 -10 16 -10 22 4 32 14 11 15 22 7 73 -5 33 -11
77 -13 98 -3 21 -14 56 -25 78 -26 49 -26 48 -1 42 14 -4 20 0 20 12 0 12 5
15 20 10 11 -3 20 -2 20 4 0 18 -35 71 -47 71 -7 0 -13 5 -13 10 0 6 5 10 11
10 6 0 8 9 4 20 -7 22 13 28 32 9 19 -19 31 -1 23 35 l-7 34 38 -5 c25 -4 39
-2 39 6 0 6 -7 11 -15 11 -9 0 -25 8 -35 18 -19 18 -18 18 39 14 56 -4 59 -3
63 19 1 13 13 28 24 34 23 11 74 67 74 81 0 4 -11 -3 -24 -15 -13 -12 -27 -21
-32 -20 -25 4 -64 -2 -59 -10 9 -15 -10 -21 -44 -15 -40 8 -40 24 -1 24 17 0
30 3 30 8 0 15 -18 34 -41 46 -19 9 -25 21 -27 54 -4 51 12 55 28 7 6 -19 15
-35 19 -35 4 0 15 -16 24 -36 21 -43 39 -40 42 6 2 19 10 39 18 45 13 9 13 15
1 45 l-14 35 20 -24 20 -23 0 24 c0 13 -6 30 -12 37 -11 11 -10 13 5 8 16 -6
17 -2 11 28 -4 23 -2 35 5 35 6 0 11 -7 11 -15 0 -8 4 -15 9 -15 9 0 24 37 22
55 0 6 11 12 26 13 15 1 29 6 32 11 13 19 57 26 66 10z m-18525 -89 c0 -15 4
-30 9 -35 6 -6 11 -36 13 -67 2 -37 8 -60 17 -63 7 -3 10 -12 7 -22 -4 -9 0
-23 8 -32 8 -9 17 -27 21 -41 5 -22 -7 -37 -101 -123 -94 -86 -151 -151 -328
-373 -66 -82 -139 -154 -157 -154 -9 0 -19 7 -23 15 -3 9 0 15 9 15 7 0 48 40
90 90 42 49 86 96 98 105 12 8 18 15 14 15 -12 0 35 65 98 136 31 35 65 64 75
64 13 0 17 5 13 18 -4 18 40 60 80 75 9 4 22 17 28 31 6 13 21 27 34 30 12 3
22 11 23 18 3 45 2 57 -8 93 -26 88 -48 270 -31 245 6 -8 11 -26 11 -40z
m12986 -85 c19 -29 22 -138 4 -160 -32 -38 -108 -75 -170 -82 -77 -8 -79 8 -7
47 46 24 127 110 127 134 0 7 -5 17 -11 23 -7 7 -9 23 -5 37 8 34 40 34 62 1z
m4802 -140 l64 -7 -39 -24 c-41 -25 -65 -32 -45 -12 20 20 14 25 -33 32 -37 6
-52 3 -92 -19 -26 -15 -57 -35 -69 -46 -11 -10 -26 -19 -32 -19 -7 0 -12 -5
-12 -10 0 -7 6 -7 18 -2 9 5 23 7 29 5 7 -3 16 3 19 11 5 13 9 14 20 5 11 -9
19 -8 34 6 11 10 23 15 27 11 4 -4 1 -11 -7 -16 -8 -5 -15 -15 -15 -22 0 -12
-90 -64 -215 -124 -118 -56 -265 -104 -364 -119 -150 -23 -196 -35 -196 -51 0
-18 -14 -18 -51 1 -29 16 -55 12 -44 -6 8 -12 0 -11 -38 4 -18 7 -61 14 -97
15 -61 2 -227 34 -350 69 -99 28 -345 126 -365 146 -7 7 -3 7 10 2 11 -4 29
-9 40 -12 11 -3 29 -9 40 -13 51 -22 190 -60 203 -55 7 3 20 -2 28 -10 9 -8
32 -15 52 -14 l37 1 -33 9 c-33 10 -35 29 -3 29 9 0 22 5 29 12 7 7 12 8 12 2
0 -5 14 -9 30 -9 17 0 30 3 30 7 0 7 -44 29 -84 42 -10 4 -17 8 -15 10 2 2 38
-5 79 -16 146 -39 217 -49 390 -54 110 -3 191 -11 219 -20 25 -8 60 -14 80
-14 l34 0 -21 23 -22 23 102 18 c57 10 118 24 137 32 18 8 42 14 52 14 11 0
19 6 19 14 0 8 12 17 28 21 15 4 86 37 157 75 72 37 137 66 145 65 8 -2 44 -7
78 -10z m-8703 -381 c28 -10 45 -25 54 -46 13 -29 12 -31 -27 -69 -33 -33 -45
-39 -66 -33 -20 5 -35 -1 -62 -21 -57 -43 -81 -15 -50 58 13 31 92 127 104
127 3 0 25 -7 47 -16z m1586 -1096 c12 -17 18 -36 14 -47 -3 -11 0 -34 8 -53
14 -35 12 -49 -16 -110 -21 -46 -54 -57 -92 -32 -57 37 -85 151 -49 202 18 26
81 69 102 69 7 0 22 -13 33 -29z m143 -270 c47 -23 59 -38 50 -63 -4 -10 -15
-13 -39 -9 -18 3 -36 0 -39 -5 -7 -10 22 -30 39 -28 19 3 15 -30 -7 -58 -12
-15 -23 -36 -23 -47 -2 -26 -15 -35 -25 -18 -7 10 -10 11 -10 3 0 -7 -8 -13
-18 -13 -10 0 -23 -5 -30 -12 -19 -19 -27 0 -9 20 10 10 17 24 17 30 0 7 3 12
8 12 4 0 7 42 6 93 -1 86 6 117 27 117 5 0 29 -10 53 -22z m6406 -36 c0 -5 12
-15 28 -23 38 -19 42 -29 36 -71 l-6 -36 39 5 c34 4 41 2 45 -14 4 -14 21 -23
61 -32 32 -7 61 -20 67 -29 7 -13 12 -14 18 -5 5 8 19 9 46 3 38 -8 60 -20 38
-20 -7 0 -12 -4 -12 -10 0 -5 7 -10 16 -10 9 0 26 -9 38 -19 164 -148 199
-176 229 -185 21 -7 23 -26 2 -26 -16 0 -20 -12 -8 -23 3 -4 12 -2 18 3 20 17
68 -9 61 -33 -5 -20 52 -86 89 -102 36 -15 75 -16 75 -1 0 8 3 21 6 30 9 23
-45 35 -58 12 -13 -24 -43 -19 -56 9 -10 23 -9 25 11 26 12 1 28 1 35 0 6 -1
12 3 12 9 0 5 -6 10 -14 10 -26 0 -28 20 -4 29 17 7 18 10 6 10 -10 1 -22 10
-28 20 -5 11 -26 25 -45 32 -19 7 -34 18 -32 24 6 17 36 18 53 1 8 -9 23 -16
33 -16 24 0 84 -30 94 -47 5 -7 26 -13 49 -13 26 0 45 -6 53 -17 7 -9 21 -17
32 -18 11 0 32 -9 46 -18 15 -9 31 -17 36 -17 10 0 139 -77 196 -116 17 -11
49 -30 72 -42 23 -12 51 -30 61 -40 25 -25 150 -123 187 -147 34 -22 67 -27
77 -12 4 7 16 4 33 -7 22 -15 31 -16 56 -6 23 10 31 9 43 -3 16 -16 56 -12 56
5 0 5 8 7 19 3 13 -4 23 2 35 21 17 25 18 25 38 7 11 -10 24 -28 29 -41 5 -13
28 -31 51 -42 24 -11 39 -20 35 -20 -5 0 -1 -7 8 -16 10 -10 13 -23 9 -33 -4
-9 -9 -34 -12 -57 -3 -36 0 -44 25 -63 l28 -23 32 38 c31 35 34 37 60 24 30
-14 48 -18 106 -22 29 -2 36 -6 31 -18 -4 -8 -9 -28 -11 -45 -3 -16 -12 -36
-22 -43 -13 -10 -13 -14 -2 -21 9 -6 10 -11 2 -15 -6 -4 -15 -5 -20 -1 -5 3
-19 -8 -30 -24 -18 -24 -54 -42 -93 -45 -19 -2 -18 -19 3 -55 l22 -40 -27 -36
c-40 -52 -76 -46 -84 14 -5 42 -21 63 -42 56 -12 -4 -26 1 -37 13 -24 24 -77
92 -81 103 -2 5 -29 26 -60 46 -58 38 -70 46 -109 83 -13 11 -27 20 -33 20 -5
0 -10 4 -10 8 0 4 -12 15 -27 24 -16 9 -47 35 -70 57 -23 23 -46 41 -51 41 -5
0 -27 17 -49 38 -22 20 -57 48 -78 62 -21 14 -65 51 -98 83 -33 31 -63 57 -68
57 -4 0 -15 3 -25 7 -17 6 -17 5 -1 -17 9 -14 17 -31 17 -39 0 -8 6 -22 14
-30 7 -9 35 -56 61 -106 26 -49 51 -94 55 -100 4 -5 26 -65 49 -133 24 -67 58
-148 77 -179 19 -31 32 -64 30 -72 -17 -62 -17 -82 3 -118 31 -56 74 -266 71
-343 0 -19 4 -62 11 -95 12 -60 12 -61 -22 -108 -18 -26 -36 -47 -40 -47 -4 0
-9 17 -11 38 -3 36 -4 37 -40 37 -34 0 -38 3 -44 30 -12 61 -44 113 -80 130
-43 20 -52 40 -30 64 9 10 16 25 16 33 0 9 6 19 13 22 6 3 -1 3 -18 0 -22 -4
-26 -3 -16 4 12 8 12 13 2 25 -9 12 -9 16 1 20 9 3 4 13 -15 32 -15 14 -25 30
-22 36 4 5 1 9 -4 9 -6 0 -11 4 -11 9 0 5 16 9 35 8 25 -1 34 -5 31 -14 -3 -7
-1 -13 4 -13 21 0 22 42 1 61 -20 19 -66 98 -59 104 14 11 57 13 61 2 2 -7 8
-8 13 -3 5 5 4 11 -3 13 -7 3 -13 11 -13 18 0 8 -12 23 -26 34 -16 13 -24 27
-20 36 3 8 0 14 -7 12 -7 -1 -11 4 -9 12 1 7 -2 29 -9 48 -9 28 -24 43 -67 69
-1 0 2 13 7 27 8 21 7 27 -7 32 -9 3 -28 14 -42 25 -21 17 -22 19 -5 14 19 -5
19 -5 2 6 -10 7 -21 9 -24 6 -3 -3 -20 11 -38 30 -22 23 -31 41 -28 54 3 12 0
20 -6 20 -7 0 -9 5 -5 11 4 7 0 9 -12 5 -14 -4 -24 2 -36 24 -11 19 -13 30 -5
33 6 2 3 10 -9 20 -97 84 -106 94 -107 122 -2 28 -41 77 -72 88 -24 10 -18
-15 15 -53 16 -19 32 -48 36 -65 5 -26 17 -57 65 -170 50 -119 60 -152 57
-182 -2 -18 0 -34 6 -36 5 -2 6 -9 2 -15 -4 -7 -13 -9 -21 -4 -14 7 -85 146
-115 222 -20 52 -29 62 -45 47 -7 -6 -10 -19 -8 -27 4 -13 -21 12 -80 80 -7 8
-21 27 -30 43 -25 38 -32 34 -34 -21 -3 -72 -6 -86 -25 -100 -10 -7 -18 -20
-18 -28 0 -8 -4 -14 -9 -14 -5 0 -10 44 -11 98 -2 53 -3 106 -3 117 0 11 1 25
2 30 10 32 -2 76 -26 103 -16 16 -37 47 -48 68 -20 41 -199 224 -219 224 -6 0
-30 17 -52 38 -80 72 -144 125 -166 136 -66 34 -124 71 -135 84 -16 20 -17 36
-1 26 8 -5 9 0 5 17 -4 13 -7 31 -7 40 0 9 -10 20 -22 24 -22 8 -22 8 5 12 15
2 27 9 27 15 0 15 -31 37 -52 38 -18 0 -24 20 -11 33 9 10 23 9 23 -1z
m-17581 -86 c32 -62 33 -69 18 -78 -9 -5 -17 -14 -17 -20 0 -22 -51 -78 -71
-78 -11 0 -30 10 -43 23 -29 29 -44 148 -21 179 7 11 12 25 9 32 -3 7 12 11
43 11 l48 0 34 -69z m16971 -24 c0 -7 7 -15 15 -18 34 -13 13 -29 -42 -32 -35
-2 -67 -10 -83 -22 -14 -10 -55 -24 -90 -30 -36 -7 -74 -18 -85 -23 -15 -8
-225 -18 -225 -10 0 10 83 45 119 48 l46 5 -40 -14 c-39 -14 -40 -14 -9 -15
33 -1 55 14 48 34 -3 8 6 15 23 18 15 3 38 8 51 11 12 3 30 8 41 10 10 2 36 9
57 15 28 8 41 7 53 -2 12 -9 13 -9 7 1 -4 6 -2 12 3 12 6 0 11 -4 11 -10 0
-14 27 -13 36 2 5 8 2 9 -9 5 -10 -3 -17 -2 -17 3 0 13 38 32 50 25 6 -3 10 4
10 16 0 22 0 22 15 3 8 -10 15 -25 15 -32z m438 -130 c23 -6 42 -6 44 -1 2 5
16 2 32 -6 15 -8 33 -12 39 -8 5 3 7 1 4 -4 -4 -6 0 -14 9 -17 9 -4 13 -2 8 5
-5 8 -1 8 14 0 43 -23 268 -262 287 -304 5 -12 27 -44 47 -70 21 -27 38 -57
38 -67 0 -30 -56 -70 -98 -70 -37 0 -102 31 -102 49 0 5 -16 21 -35 36 -29 21
-39 24 -50 15 -42 -35 0 -130 90 -201 36 -29 79 -74 95 -99 15 -25 49 -74 74
-110 50 -71 59 -106 26 -95 -14 4 -20 2 -20 -9 0 -20 -19 -31 -33 -17 -6 6
-18 11 -27 11 -17 0 -47 35 -153 179 -34 47 -79 108 -99 135 -21 28 -46 64
-55 81 -18 30 -59 73 -104 110 -14 11 -40 32 -58 48 -18 15 -37 25 -42 21 -5
-3 -9 13 -9 36 0 36 -2 40 -17 31 -13 -7 -23 -5 -37 7 -15 13 -17 13 -11 2 6
-10 2 -9 -12 3 -12 10 -24 30 -28 44 -4 16 -11 23 -20 19 -9 -3 -15 0 -15 8 0
8 -7 17 -16 20 -8 3 -13 10 -9 15 3 5 -4 12 -15 16 -26 8 -26 39 1 64 27 25
21 43 -16 47 -16 2 -31 8 -33 14 -2 5 -9 10 -15 10 -7 0 -21 8 -32 16 -19 15
-19 16 10 10 20 -4 55 1 95 14 78 24 99 25 106 5 4 -8 17 -15 31 -15 20 0 24
4 20 19 -5 20 11 20 91 3z m-755 -42 c23 -5 86 -18 141 -30 99 -21 155 -46
276 -121 77 -48 270 -241 326 -327 67 -103 121 -194 165 -277 23 -44 45 -85
50 -91 15 -19 59 -104 57 -112 -3 -16 25 -72 36 -72 6 0 33 -46 60 -102 27
-57 62 -122 78 -146 16 -23 37 -64 45 -90 9 -26 19 -51 23 -57 15 -20 68 -232
91 -365 20 -114 39 -321 46 -482 6 -174 6 -178 -40 -253 -6 -11 -23 -39 -37
-62 -14 -24 -29 -43 -33 -43 -12 0 -37 -27 -37 -39 0 -5 -6 -14 -14 -18 -19
-10 -60 -71 -104 -153 -19 -36 -47 -79 -61 -97 -88 -107 -131 -173 -131 -199
0 -8 -9 -22 -20 -31 -11 -10 -20 -23 -20 -31 0 -7 -4 -10 -10 -7 -5 3 -10 -3
-10 -14 0 -27 -30 -61 -53 -61 -10 0 -15 5 -12 10 3 6 3 15 0 21 -9 13 -45
-18 -45 -39 0 -8 -10 -36 -21 -61 -12 -25 -29 -62 -38 -81 -9 -19 -19 -36 -22
-38 -3 -1 -4 -14 -1 -27 3 -21 -9 -39 -71 -102 -42 -43 -78 -75 -81 -72 -3 3
4 16 15 28 24 25 20 37 -8 23 -10 -5 -24 -7 -32 -4 -10 3 -12 0 -8 -11 4 -11
2 -14 -9 -10 -9 3 -12 12 -9 24 4 12 1 19 -7 19 -8 1 -5 8 8 19 17 14 20 21
11 36 -16 30 -17 95 -1 95 16 0 16 2 8 24 -3 9 -12 16 -20 16 -17 0 -19 26 -3
36 6 3 9 19 5 35 -3 15 1 47 9 71 7 24 16 60 19 81 4 33 3 38 -12 33 -9 -3 -4
5 12 19 21 19 27 32 23 51 -3 19 13 48 74 130 97 129 102 146 32 99 l-37 -26
-9 23 c-6 16 -2 29 13 50 11 15 20 41 20 58 0 16 4 30 9 30 11 0 26 79 17 88
-4 3 -30 5 -59 4 l-51 -2 34 33 c19 17 58 58 85 91 28 32 60 69 73 82 15 17
22 38 22 65 0 21 -3 39 -6 39 -3 0 -32 -27 -64 -60 -65 -67 -94 -79 -60 -25
33 53 1 46 -48 -11 -28 -33 -48 -48 -68 -49 -50 -3 -55 -5 -50 -14 3 -5 -14
-27 -39 -50 -25 -23 -45 -46 -45 -51 0 -6 -4 -10 -8 -10 -5 0 -24 -24 -42 -52
-37 -57 -147 -168 -168 -168 -16 0 -5 51 15 67 13 10 13 16 -6 42 -15 21 -18
31 -9 34 19 7 -10 33 -46 41 -26 6 -28 5 -17 -8 8 -9 10 -27 6 -46 -7 -32 -14
-37 -32 -19 -14 14 -22 -35 -22 -139 0 -50 -4 -89 -11 -98 -20 -23 -32 -16
-25 15 5 24 2 33 -14 43 -12 7 -21 21 -21 30 0 21 16 24 23 6 3 -7 6 -1 6 14
1 15 -3 30 -9 33 -15 9 -50 -13 -50 -32 0 -9 -3 -13 -6 -10 -4 4 -19 -2 -34
-13 -15 -11 -38 -24 -51 -29 -13 -4 -24 -16 -24 -26 0 -10 -5 -20 -11 -22 -7
-2 -14 20 -19 61 -3 36 -15 83 -25 103 -10 21 -24 68 -30 103 -14 79 -22 109
-47 177 l-20 53 -20 -23 c-11 -12 -24 -33 -28 -47 -12 -39 -33 -67 -39 -49 -2
8 -9 29 -15 48 -6 18 -8 44 -5 57 4 15 0 34 -10 49 -9 13 -16 31 -16 39 0 19
-21 66 -29 66 -3 0 -15 -8 -26 -16 -14 -11 -16 -18 -7 -21 6 -3 12 -12 12 -20
0 -9 11 -39 25 -67 20 -40 26 -71 29 -142 2 -50 0 -97 -4 -104 -4 -7 -4 -27 1
-45 8 -27 5 -41 -11 -71 -12 -20 -28 -57 -37 -83 -8 -25 -23 -55 -33 -66 -9
-11 -20 -28 -23 -37 -4 -10 -10 -18 -15 -18 -11 0 -52 73 -52 93 0 8 -9 25
-21 38 -18 21 -20 21 -14 4 17 -46 18 -125 2 -143 -9 -9 -19 -41 -23 -70 -3
-28 -10 -52 -14 -52 -14 0 -31 -53 -20 -64 17 -17 11 -27 -14 -20 -18 4 -25 1
-29 -16 -4 -17 -12 -21 -34 -18 -27 3 -29 0 -38 -50 -8 -42 -13 -50 -23 -40
-9 9 -17 7 -35 -10 -15 -14 -30 -20 -40 -16 -10 4 -17 1 -17 -6 0 -7 -7 -10
-15 -6 -18 6 -35 -22 -35 -59 0 -15 -8 -40 -17 -57 -16 -25 -23 -29 -53 -26
-39 5 -90 -17 -90 -38 0 -8 -9 -23 -20 -34 l-21 -21 -44 37 c-25 20 -45 41
-45 46 0 6 -11 23 -25 40 -14 16 -25 36 -25 44 0 8 -4 14 -9 14 -5 0 -7 -8 -4
-19 3 -11 -2 -21 -12 -25 -12 -4 -16 -2 -12 8 4 9 1 13 -6 11 -17 -6 -97 70
-137 130 -32 48 -86 105 -100 105 -10 0 34 -85 63 -124 24 -32 42 -80 26 -70
-5 3 -9 -2 -9 -10 0 -26 -20 -18 -55 20 -34 37 -55 38 -55 2 0 -14 5 -18 15
-15 22 9 26 -7 12 -48 l-13 -37 -13 26 c-8 14 -18 23 -23 19 -6 -3 -23 4 -39
16 -33 24 -49 27 -49 7 0 -13 27 -31 42 -28 4 1 9 -7 13 -17 6 -20 101 -112
132 -130 25 -14 8 -26 -19 -15 -31 13 -58 6 -58 -14 0 -9 -4 -23 -9 -31 -8
-12 -12 -12 -25 -2 -8 7 -32 14 -51 16 -20 2 -42 8 -48 13 -19 14 -56 21 -63
11 -10 -17 -37 -9 -78 24 -58 47 -106 67 -147 61 -27 -4 -40 1 -64 23 -16 16
-35 40 -42 54 -7 16 -57 56 -134 105 -67 43 -135 91 -151 105 -15 15 -49 34
-74 44 -40 15 -51 16 -86 4 -54 -17 -74 -4 -71 47 l3 39 -58 2 c-68 3 -143 27
-117 37 9 3 40 6 69 6 42 0 57 5 75 24 22 23 22 25 6 57 -10 19 -42 60 -73 92
-31 31 -51 57 -44 57 7 0 10 5 6 11 -5 9 1 10 19 5 26 -6 26 -5 16 21 -6 16
-18 36 -26 45 -15 17 -12 18 52 18 54 0 66 3 62 14 -16 42 46 91 93 74 32 -12
37 -2 17 31 -22 38 -13 61 24 61 34 0 39 16 8 25 -13 4 -18 12 -15 22 3 8 6
18 6 22 0 35 270 -87 338 -152 35 -34 43 -21 17 29 -8 16 -15 36 -15 44 0 17
-106 123 -183 184 -26 21 -46 41 -43 43 3 3 1 14 -4 24 -8 14 -4 22 15 37 17
14 23 25 18 38 -5 13 -2 16 13 12 35 -9 45 15 23 56 -10 20 -19 38 -19 41 0
11 37 4 58 -11 12 -8 22 -12 22 -8 0 4 8 0 18 -8 9 -8 29 -18 44 -22 15 -3 32
-15 38 -26 6 -11 20 -24 31 -31 18 -9 19 -8 11 8 -10 20 -1 134 11 133 4 0 16
0 27 0 24 0 48 -49 30 -60 -14 -9 -2 -40 16 -40 8 0 14 5 14 11 0 5 -4 7 -10
4 -13 -8 -13 18 0 31 6 6 2 25 -14 54 -13 25 -27 60 -31 79 -6 29 -5 33 9 28
12 -5 15 -3 10 5 -5 8 -2 9 9 5 16 -6 22 6 18 39 -2 17 41 51 46 37 3 -7 8
-13 12 -13 12 0 0 50 -19 85 -14 25 -15 33 -4 43 17 16 17 16 44 -8 13 -11 29
-20 36 -20 7 0 18 -8 23 -17 6 -10 11 -13 11 -6 0 6 -4 14 -8 17 -13 8 -1 74
14 80 7 3 19 -3 26 -13 10 -14 106 -56 109 -48 0 1 1 24 2 52 2 43 -1 54 -26
78 -16 16 -27 30 -24 33 7 7 67 16 131 18 58 2 65 0 275 -111 119 -62 243
-122 276 -132 33 -11 68 -22 77 -26 13 -5 15 -2 11 15 l-6 22 41 -23 c75 -44
184 -113 196 -123 44 -42 102 -86 113 -86 11 0 11 5 -1 28 -16 31 -61 69 -116
97 -19 10 -51 31 -70 46 -19 16 -38 29 -42 29 -17 0 -88 59 -78 65 5 3 15 3
20 0 6 -3 10 -2 10 4 0 13 -66 62 -123 91 -70 36 -119 79 -112 99 3 10 -9 32
-30 55 -38 43 -46 71 -17 62 24 -8 48 30 31 50 -9 11 -7 14 12 14 24 1 24 1 4
16 -11 8 -62 36 -112 61 -51 26 -93 50 -93 55 0 13 38 29 45 18 3 -5 13 -10
22 -10 12 0 13 3 4 14 -20 24 11 26 70 4 30 -11 72 -27 93 -35 22 -7 58 -25
81 -39 23 -13 49 -22 58 -18 20 7 81 -24 201 -105 54 -36 115 -77 135 -90 20
-13 62 -51 93 -84 32 -33 60 -58 63 -56 11 12 -70 112 -127 155 -58 44 -118
100 -118 110 0 14 -121 104 -139 104 -6 0 -11 3 -11 6 0 11 24 50 52 84 15 19
28 40 28 47 0 7 14 20 31 28 31 17 89 67 89 78 0 4 16 22 35 41 19 20 35 41
35 49 0 7 4 17 9 22 5 6 12 20 15 31 10 32 -21 41 -35 10 -6 -12 -24 -31 -40
-40 -18 -11 -32 -29 -36 -47 -6 -29 -33 -63 -33 -40 0 6 5 11 10 11 6 0 10 6
9 13 -2 13 7 41 23 71 7 14 6 21 -4 28 -10 7 -10 9 2 7 32 -3 38 2 35 28 -2
24 -1 25 10 9 13 -17 13 -17 17 1 2 10 -3 23 -12 30 -13 10 -13 13 0 30 21 25
52 83 45 83 -3 0 -14 -6 -25 -12 -17 -11 -22 -10 -29 1 -7 11 -11 10 -20 -5
-9 -15 -13 -16 -18 -5 -4 10 -7 10 -13 1 -6 -9 -12 -9 -30 0 -21 11 -21 12 -3
29 10 9 26 20 36 24 9 3 17 13 17 22 0 8 6 15 14 15 8 0 18 12 24 28 10 29 0
72 -18 72 -5 0 -10 8 -10 18 0 14 -2 15 -10 2 -8 -13 -10 -12 -10 3 0 10 7 25
15 33 8 9 15 12 15 8 0 -18 41 48 46 75 4 17 14 33 24 36 19 6 68 55 55 55 -5
0 -23 -5 -42 -12 -43 -16 -52 -5 -22 27 25 27 105 85 117 85 4 0 33 16 64 35
103 62 241 93 333 76 25 -5 45 -5 45 0 0 5 -12 9 -27 9 -33 0 -65 19 -45 27
25 10 10 21 -38 27 -54 7 -59 20 -12 29 16 3 43 19 61 36 17 16 37 32 44 35
15 7 102 -1 160 -14z m-1686 -61 c40 -20 62 -46 63 -71 0 -20 -29 -58 -45 -58
-5 0 -24 -14 -42 -30 -18 -17 -40 -34 -50 -38 -40 -17 -83 -48 -83 -59 0 -7
-10 -13 -22 -13 -33 0 -97 -32 -103 -51 -5 -16 -53 -41 -82 -43 -6 -1 -22 -10
-34 -21 -18 -15 -20 -16 -10 -2 7 9 9 17 3 17 -5 0 -17 -11 -26 -25 -9 -14
-20 -24 -24 -24 -14 3 -72 -14 -72 -20 0 -3 -59 -7 -131 -8 -117 -1 -134 1
-152 18 -11 10 -26 19 -33 19 -9 0 -10 10 -4 38 10 44 72 105 146 142 27 14
55 31 62 37 7 7 24 16 38 19 13 4 29 14 34 24 5 9 39 27 76 39 37 12 79 30 93
40 34 24 111 57 152 66 19 4 39 11 44 16 13 9 99 16 138 10 15 -2 44 -12 64
-22z m1288 22 c-6 -6 -48 -31 -94 -56 -176 -97 -442 -283 -572 -399 -25 -23
-80 -69 -122 -104 -74 -61 -183 -160 -338 -306 -41 -39 -110 -100 -152 -136
-42 -36 -77 -68 -77 -72 0 -5 -19 -8 -43 -8 -35 0 -49 -6 -73 -31 -27 -29
-156 -119 -170 -119 -3 0 -33 -19 -65 -42 -44 -30 -58 -46 -53 -57 22 -51 33
-115 22 -128 -6 -8 -21 -36 -34 -63 -21 -45 -106 -140 -126 -140 -5 0 -8 -8
-6 -17 2 -11 -2 -17 -10 -15 -8 1 -11 -1 -8 -6 6 -11 -122 -118 -136 -114 -5
1 -7 -2 -3 -8 3 -5 -6 -15 -22 -21 -29 -11 -83 -57 -83 -70 0 -10 -105 -110
-136 -129 -13 -8 -24 -23 -24 -32 0 -10 -4 -18 -10 -18 -5 0 -7 -6 -4 -14 4
-11 0 -13 -17 -9 -15 4 -20 3 -15 -5 4 -7 15 -12 24 -12 15 -1 15 -2 -1 -11
-10 -6 -25 -8 -33 -5 -22 8 -44 -4 -44 -25 0 -11 7 -22 15 -25 36 -14 11 -56
-54 -89 -32 -16 -35 -16 -62 4 l-28 21 -41 -54 c-22 -29 -48 -69 -58 -88 -9
-19 -47 -61 -84 -92 -62 -52 -109 -116 -87 -116 6 0 4 -12 -4 -27 -8 -16 -20
-39 -26 -53 -7 -14 -22 -30 -34 -35 -12 -6 -23 -20 -25 -32 -4 -24 -50 -43
-107 -43 -45 0 -59 -13 -52 -47 4 -23 -1 -36 -29 -68 -34 -40 -48 -70 -18 -41
8 9 24 21 35 26 10 6 19 17 19 25 0 8 9 15 20 15 13 0 20 -7 20 -18 0 -10 5
-23 10 -28 18 -18 -1 -44 -78 -105 -84 -66 -107 -74 -98 -31 3 15 2 33 -3 41
-7 11 -15 10 -40 -9 -36 -25 -130 -62 -132 -52 -1 4 -1 10 0 15 0 4 -6 7 -14
7 -8 0 -15 -8 -16 -17 0 -15 -2 -15 -9 2 -8 19 -9 19 -9 -2 -1 -13 -5 -23 -10
-23 -6 0 -9 8 -9 18 1 9 -2 32 -6 50 -6 24 -4 32 6 32 11 0 11 2 -1 9 -10 6
-10 10 -1 16 8 5 6 11 -8 21 -17 11 -20 24 -18 74 2 66 -14 96 -33 63 -10 -17
-10 -17 -11 0 0 10 -5 15 -10 12 -6 -4 -8 -21 -6 -38 7 -53 17 -77 30 -70 8 5
8 3 0 -8 -11 -14 -12 -175 -1 -186 10 -10 -3 -23 -23 -23 -18 0 -29 31 -29 80
0 8 -5 35 -11 59 -7 27 -7 47 -1 55 5 6 7 34 5 63 -2 30 0 55 6 58 8 5 7 11
-1 21 -15 19 -26 164 -12 164 13 0 33 -119 21 -126 -5 -3 -3 -13 3 -21 11 -13
15 -13 27 4 12 17 14 17 26 1 7 -10 16 -15 19 -11 10 10 8 25 -2 19 -13 -8
-23 58 -15 99 3 19 12 39 20 46 8 6 14 18 14 25 0 8 10 14 22 14 17 0 19 3 10
12 -17 17 -15 54 3 72 14 13 13 16 -2 25 -17 10 -16 12 7 31 14 11 30 18 35
16 11 -3 7 -46 -6 -62 -9 -11 -2 -24 13 -24 5 0 6 5 3 10 -3 6 1 17 10 26 10
10 13 23 9 33 -16 38 -12 69 12 82 24 13 32 29 14 29 -5 0 -10 -4 -10 -9 0 -5
-7 -11 -15 -15 -12 -4 -13 -2 -2 14 6 11 19 20 29 20 21 0 31 16 32 50 1 17
-3 26 -11 23 -14 -6 -24 -43 -11 -43 5 0 6 -4 3 -10 -12 -20 -33 -11 -28 13 9
37 34 59 60 52 18 -4 23 -1 23 13 0 10 3 22 8 26 4 4 7 18 7 29 0 12 6 21 13
20 17 -4 15 14 -3 21 -8 3 -15 1 -15 -4 0 -5 -12 -7 -27 -6 -22 2 -29 9 -31
31 -4 28 2 28 36 1 22 -16 50 -17 56 -1 3 9 18 15 36 15 32 0 40 14 14 24 -9
3 -29 -3 -46 -15 -22 -16 -32 -19 -41 -10 -8 8 -7 11 6 11 9 0 17 7 17 15 0 9
-6 15 -13 13 -7 -2 -14 2 -15 7 -1 6 9 11 23 13 29 4 34 22 5 22 -14 0 -18 5
-13 17 5 12 2 15 -9 10 -23 -8 -29 2 -16 26 9 18 11 19 20 4 10 -19 29 -23 25
-6 -1 6 14 17 33 24 26 10 29 14 13 14 -19 1 -20 4 -10 26 13 26 33 33 39 13
2 -6 10 -8 16 -4 17 10 15 26 -3 20 -10 -4 -15 0 -15 14 0 11 -6 23 -12 25
-10 4 -10 8 0 15 8 5 13 12 13 16 -4 25 2 35 21 38 12 2 23 9 26 17 3 8 0 11
-6 7 -15 -9 -42 4 -42 20 0 8 5 14 11 14 6 0 8 7 5 16 -5 13 -4 14 7 6 19 -16
24 -8 19 27 -3 22 -8 28 -21 24 -12 -3 -11 0 4 12 18 14 20 14 23 1 2 -9 10
-16 18 -16 8 0 17 0 22 0 4 0 7 3 7 8 0 4 4 13 9 21 6 10 5 16 -2 19 -17 5
-15 15 7 29 16 10 18 9 13 -9 -5 -19 -3 -19 20 3 13 13 23 27 21 32 -2 4 5 7
16 7 12 0 21 5 21 11 0 6 6 9 13 6 6 -2 21 0 32 6 11 6 34 13 50 17 l30 6 -30
15 c-16 8 -29 22 -29 31 1 10 -4 14 -12 11 -8 -3 -14 -9 -14 -14 0 -17 -19 -9
-49 21 -33 31 -30 43 7 29 13 -5 22 -17 22 -30 l0 -22 25 23 c14 13 25 30 25
38 0 10 8 13 26 9 22 -4 30 1 46 30 13 21 26 32 34 29 8 -3 14 -1 14 4 0 6 7
10 16 10 14 0 14 3 4 15 -9 10 -9 15 -1 15 6 0 11 5 11 10 0 6 -6 10 -13 10
-8 0 -14 7 -14 15 0 18 -1 18 34 4 45 -19 73 -20 66 -3 -5 12 13 19 40 15 4 0
7 3 7 9 0 5 7 7 15 4 8 -4 15 -1 15 5 0 6 -4 11 -10 11 -5 0 -10 7 -10 15 0 8
5 15 10 15 21 0 9 27 -21 44 -36 21 -33 32 5 15 20 -10 32 -10 53 0 24 11 25
11 13 -4 -12 -14 -11 -16 13 -10 31 8 35 -1 10 -22 -17 -14 -17 -14 0 -9 9 3
29 1 43 -4 20 -8 25 -7 21 2 -2 7 -10 12 -16 10 -6 -1 -11 10 -11 24 0 17 -4
23 -12 18 -7 -5 -9 -2 -5 8 3 9 1 20 -4 25 -5 5 2 9 18 8 15 0 28 5 28 12 0
19 14 27 27 16 7 -6 24 -9 38 -8 14 2 34 4 45 5 11 1 14 4 8 7 -23 9 -14 25
10 17 22 -7 22 -7 3 15 -18 20 -19 23 -3 38 12 13 17 14 17 4 0 -8 6 -11 16
-7 9 4 22 2 29 -4 9 -8 17 -6 28 5 9 8 25 15 36 15 26 0 26 7 4 33 -18 19 -17
20 6 7 22 -11 23 -11 18 9 -3 11 -1 24 4 27 5 3 9 -2 9 -10 0 -9 7 -16 16 -16
8 0 12 5 9 10 -3 6 4 10 15 10 16 0 20 4 16 16 -3 8 -2 13 3 9 5 -3 11 1 14 7
4 10 7 11 18 1 16 -16 33 -17 23 -1 -4 7 -3 8 4 4 13 -8 112 43 112 58 0 5 -8
2 -18 -7 -24 -22 -29 -21 -42 4 -10 18 -10 19 8 10 16 -8 25 -6 46 14 29 26
60 32 72 14 5 -8 10 -6 16 5 5 9 15 16 22 16 8 0 16 6 19 14 4 10 0 12 -16 8
-20 -5 -20 -4 -8 11 7 9 19 17 27 17 7 0 18 8 23 18 9 14 12 14 20 3 6 -9 11
-10 15 -2 4 6 12 11 17 11 6 0 7 -4 4 -10 -3 -5 0 -10 8 -10 8 0 20 -7 27 -15
14 -17 30 -20 30 -6 0 5 -9 13 -20 16 -25 8 -26 25 -1 25 10 0 26 12 36 26 13
21 19 23 31 13 12 -10 13 -9 8 5 -6 16 10 23 19 9 2 -5 2 -3 1 4 -4 17 11 24
57 28 28 2 39 -1 39 -10 0 -20 21 -30 31 -14 8 12 11 12 20 -1 9 -13 10 -12 5
3 -3 10 -6 23 -6 29 0 6 -6 8 -13 5 -8 -3 -20 -1 -28 5 -11 8 -11 9 2 5 9 -3
26 1 38 9 12 8 25 13 30 10 5 -3 14 1 21 9 7 8 9 15 4 15 -5 0 0 7 10 15 16
12 22 12 35 2 11 -9 13 -9 8 0 -5 8 7 14 38 19 25 3 49 4 52 0 3 -3 14 4 24
15 14 16 21 18 38 10 27 -15 36 -14 22 3 -9 11 -6 14 14 14 15 0 24 -5 22 -12
-3 -7 9 -11 32 -12 20 0 30 1 24 3 -7 3 -13 9 -13 15 0 6 7 7 15 4 9 -3 18 1
21 9 3 8 12 11 22 8 11 -5 14 -2 9 10 -4 11 -1 17 8 17 8 0 15 -4 15 -10 0 -5
5 -10 10 -10 7 0 7 6 0 19 -11 22 -1 34 19 21 8 -4 10 -14 7 -21 -4 -8 0 -5 9
6 14 17 17 18 25 5 8 -13 10 -12 10 3 0 15 3 16 21 6 18 -9 24 -8 31 5 8 14
12 15 26 4 13 -11 15 -10 10 7 -3 14 0 21 11 22 53 6 96 15 101 22 3 5 15 11
27 15 11 4 24 14 27 22 5 12 2 15 -11 10 -16 -5 -16 -4 1 9 10 8 22 12 26 10
5 -3 24 2 44 10 20 8 36 12 36 9 0 -4 6 -1 14 5 11 9 17 8 29 -4 21 -20 44
-21 27 0 -13 15 -4 19 38 18 6 -1 12 3 12 8 0 5 7 9 15 9 8 0 15 6 15 13 0 18
47 39 70 32 10 -3 25 2 34 10 9 9 16 14 16 10 0 -3 14 2 30 10 17 9 36 15 43
14 26 -3 46 1 59 14 15 14 128 74 143 76 6 1 6 -2 0 -8z m-9765 -271 c0 -5 -4
-10 -9 -10 -4 0 -49 -46 -99 -102 -307 -350 -357 -405 -564 -634 -139 -152
-173 -202 -130 -190 9 2 55 12 102 21 95 18 113 22 254 61 109 29 210 44 227
33 6 -4 20 2 30 12 24 24 59 25 59 2 0 -15 1 -15 13 1 13 18 15 18 40 1 25
-16 29 -16 52 -1 29 19 62 21 67 4 6 -18 64 30 86 72 10 19 31 59 47 88 15 29
39 64 52 78 13 14 32 42 42 63 11 21 40 60 66 87 44 47 45 48 29 14 -9 -19
-41 -70 -70 -112 -30 -43 -54 -82 -54 -88 0 -6 -8 -23 -18 -38 -32 -48 -41
-66 -74 -135 l-31 -68 -66 1 c-148 3 -267 -10 -406 -45 -220 -55 -354 -84
-432 -91 -68 -6 -73 -5 -73 13 0 31 57 101 320 394 80 89 216 241 303 338 87
97 172 191 188 209 29 32 49 41 49 22z m14148 -110 c158 -77 209 -110 173
-110 -6 0 -62 -51 -127 -112 -64 -62 -119 -114 -123 -115 -3 -2 -17 23 -30 55
-13 31 -32 75 -41 97 -10 22 -21 51 -25 65 -4 14 -11 30 -15 35 -4 6 -13 28
-20 50 -7 22 -16 45 -20 50 -12 17 -20 62 -14 78 8 21 22 15 242 -93z m-9796
49 c-4 -25 -8 -30 -65 -91 -19 -21 -33 -39 -31 -41 6 -6 -50 -63 -68 -70 -22
-8 -51 15 -47 38 2 10 23 28 47 39 29 15 44 29 48 47 3 14 22 39 41 55 20 16
41 34 47 41 17 19 31 9 28 -18z m7183 -225 c-18 -18 -18 -19 -6 -42 26 -52 33
-71 26 -82 -4 -7 -1 -11 6 -9 8 1 24 1 37 0 21 -1 22 -2 7 -25 -9 -13 -15 -28
-13 -32 1 -5 -3 -19 -10 -31 -7 -13 -10 -23 -7 -23 3 0 -4 -9 -16 -21 -12 -12
-24 -17 -29 -12 -14 15 -90 122 -90 126 0 2 -21 26 -46 53 l-46 48 32 9 c18 4
49 19 70 32 23 15 46 22 59 18 13 -3 21 -1 21 6 0 7 5 9 10 6 6 -4 4 -12 -5
-21z m3263 -26 c94 -21 122 -38 77 -47 -39 -7 -105 -61 -259 -209 -87 -84
-161 -150 -164 -148 -5 5 160 189 194 217 26 21 134 148 134 157 0 9 -59 32
-83 32 -9 0 -19 5 -22 10 -9 15 9 13 123 -12z m-3030 -357 c2 -12 14 -33 26
-46 l23 -25 -5 27 c-3 16 -1 24 5 20 10 -6 33 -78 39 -122 1 -11 7 -38 13 -61
6 -22 13 -67 16 -100 5 -51 4 -57 -8 -41 -8 9 -23 17 -34 17 -10 0 -24 5 -31
12 -9 9 -12 9 -12 0 0 -7 -6 -12 -13 -12 -18 0 -67 52 -67 71 0 8 -13 25 -28
36 -16 12 -37 38 -46 58 -10 20 -25 45 -34 54 -26 27 -60 92 -35 68 3 -4 15 1
25 10 18 16 21 16 48 -1 30 -17 30 -17 40 9 6 14 10 30 10 34 0 36 63 29 68
-8z m-234 -37 c9 -3 16 -14 16 -23 0 -9 9 -22 20 -29 11 -7 20 -21 20 -32 0
-11 12 -43 26 -70 14 -28 23 -57 20 -67 -3 -11 3 -36 14 -58 23 -45 27 -80 8
-69 -7 5 -26 7 -43 5 -36 -3 -52 12 -124 121 -43 64 -51 84 -51 123 0 55 14
85 40 85 10 0 22 5 25 10 7 12 8 12 29 4z m-7641 -596 c32 -16 38 -58 8 -58
-18 0 -37 -27 -26 -38 3 -3 5 0 5 7 0 7 5 9 11 6 6 -4 8 -14 5 -22 -3 -8 -2
-22 3 -31 4 -9 11 -30 15 -46 6 -23 4 -27 -9 -23 -8 4 -26 2 -40 -3 -15 -6
-26 -6 -30 0 -9 15 -25 12 -19 -4 6 -16 -44 -13 -78 5 -15 8 -19 8 -14 0 9
-14 -43 8 -63 28 -8 7 -28 18 -44 23 -21 8 -25 13 -15 19 10 7 10 11 0 17 -10
7 -8 12 7 26 17 16 22 16 54 2 31 -12 37 -13 48 0 6 8 19 14 29 14 18 0 43 24
53 53 4 9 15 17 26 17 11 0 23 5 26 10 8 13 15 13 48 -2z m2267 -78 c26 -13
39 -15 52 -7 13 9 33 6 84 -12 52 -18 68 -20 74 -10 11 17 97 20 111 3 6 -8
18 -14 25 -14 21 0 17 -38 -5 -50 -27 -14 -90 -13 -105 3 -13 13 -16 20 -16
38 0 7 -9 5 -22 -5 -58 -41 -93 -47 -339 -49 l-136 -2 -33 33 c-30 30 -31 35
-17 49 8 9 53 24 99 34 94 20 173 17 228 -11z m8738 -305 c8 -5 24 -20 37 -32
12 -13 29 -23 37 -23 9 0 21 -7 28 -16 19 -22 128 -104 140 -104 5 0 15 -10
21 -22 7 -13 53 -66 104 -119 95 -100 125 -144 125 -187 0 -21 2 -22 15 -12
23 19 20 -5 -6 -47 -23 -37 -40 -37 -20 0 10 19 8 31 -12 74 -42 91 -113 171
-133 150 -3 -3 17 -33 45 -68 46 -57 59 -79 46 -79 -9 0 -85 85 -85 96 0 6
-12 17 -26 24 -14 8 -28 26 -31 42 -3 15 -14 30 -24 33 -11 4 -19 15 -19 26 0
10 -3 19 -7 19 -5 0 -33 24 -63 53 -30 29 -81 72 -112 95 -31 23 -59 50 -63
61 -3 11 -15 23 -26 26 -19 6 -24 17 -13 28 7 6 17 2 42 -18z m-13876 -85 c4
-23 10 -45 13 -49 12 -11 25 24 21 52 -4 21 -2 27 12 27 38 0 63 -14 82 -45
17 -27 34 -37 98 -58 42 -14 120 -35 172 -47 137 -32 143 -34 147 -47 5 -14
-107 -17 -185 -4 -29 4 -52 5 -52 2 0 -11 37 -30 74 -36 20 -4 36 -11 36 -17
0 -5 -4 -7 -8 -4 -5 3 -40 10 -78 16 -38 6 -94 19 -124 29 -30 10 -85 22 -122
26 -68 7 -77 12 -58 31 7 7 6 16 -3 28 -11 15 -17 17 -35 7 -20 -10 -23 -9
-32 14 -6 16 -6 34 0 51 6 14 10 37 10 50 0 42 24 22 32 -26z m2793 -230 c-3
-61 1 -69 24 -47 10 10 11 9 6 -4 -4 -12 1 -18 19 -23 28 -7 35 -35 13 -58 -6
-7 -23 -30 -37 -50 -14 -21 -29 -38 -35 -38 -5 0 -21 -12 -34 -25 -13 -14 -29
-25 -36 -25 -6 0 -25 -12 -42 -27 -16 -16 -36 -29 -43 -31 -22 -5 -61 -52 -54
-64 5 -7 2 -8 -6 -3 -10 6 -12 4 -7 -8 3 -10 2 -17 -3 -17 -22 0 -9 -38 14
-44 14 -3 33 -14 42 -24 17 -16 18 -16 11 1 -3 9 -2 17 3 17 14 0 31 -37 24
-53 -3 -8 -1 -18 5 -22 16 -9 13 -25 -3 -25 -10 0 -12 -7 -8 -22 3 -13 1 -19
-5 -15 -15 10 -44 -38 -36 -59 5 -13 3 -16 -10 -11 -10 4 -16 2 -14 -5 1 -6
-4 -13 -12 -16 -8 -3 -11 0 -7 7 4 6 1 11 -8 11 -9 0 -16 -4 -16 -10 0 -5 -9
-10 -20 -10 -11 0 -20 -5 -20 -11 0 -5 -5 -7 -12 -3 -8 5 -9 2 -5 -9 5 -13 1
-17 -18 -17 -13 0 -33 -10 -45 -22 -14 -15 -20 -18 -20 -7 0 12 -2 12 -9 0 -5
-7 -14 -10 -21 -6 -6 4 -21 -2 -33 -12 -12 -11 -43 -26 -69 -33 -27 -7 -48
-16 -48 -20 0 -9 -44 -23 -75 -24 -11 -1 -23 -5 -26 -9 -3 -5 -26 -11 -50 -14
-24 -3 -46 -10 -49 -14 -3 -4 -26 1 -50 13 -43 19 -44 21 -22 31 12 5 22 18
22 29 0 19 35 60 43 52 3 -3 8 0 13 7 4 8 3 10 -4 5 -7 -4 -12 -1 -12 8 0 24
-20 30 -35 10 -13 -18 -14 -18 -15 -1 0 16 -20 25 -20 9 0 -5 -10 -8 -22 -6
-13 1 -27 3 -33 3 -5 1 -3 6 5 11 11 8 8 9 -12 4 -15 -3 -33 -2 -40 2 -7 5
-18 9 -24 10 -6 1 -23 14 -38 29 -24 24 -26 32 -20 72 5 33 10 43 21 39 8 -3
12 -2 8 3 -3 5 1 12 7 15 10 3 8 8 -4 19 -16 13 -16 15 0 31 12 12 14 19 5 24
-8 5 -4 16 13 35 22 26 29 27 25 4 -1 -5 3 -6 9 -2 15 9 12 34 -5 51 -13 14
-15 14 -15 -1 0 -14 -3 -13 -18 5 l-18 22 -55 -25 c-70 -33 -137 -99 -235
-229 -87 -116 -88 -117 -141 -205 -21 -35 -46 -72 -55 -83 -10 -11 -30 -43
-44 -70 -14 -28 -30 -53 -35 -56 -5 -3 -7 -9 -4 -14 8 -13 -34 -33 -57 -27
-11 3 -28 2 -37 -3 -9 -5 -32 -12 -53 -15 -29 -5 -48 -19 -100 -78 -52 -60
-74 -77 -123 -96 -72 -29 -104 -43 -370 -162 -88 -39 -225 -99 -305 -133 -80
-35 -229 -100 -333 -146 -163 -73 -186 -86 -181 -103 11 -35 -5 -105 -26 -112
-11 -3 -41 -28 -67 -56 -26 -27 -77 -64 -113 -83 -87 -45 -255 -116 -274 -116
-8 0 -29 14 -46 30 -17 17 -39 30 -50 30 -10 0 -25 6 -32 13 -7 8 -20 16 -28
20 -9 3 -2 6 15 6 54 2 120 13 133 24 7 5 15 7 19 4 3 -4 18 2 33 13 16 11 35
20 44 20 9 0 16 4 16 8 0 5 21 24 48 42 57 41 72 55 72 68 0 6 3 12 8 14 4 2
20 23 37 46 16 24 43 59 60 77 16 19 39 46 50 61 11 15 26 33 33 40 6 7 12 16
12 21 0 4 14 19 31 32 16 13 28 30 25 38 -3 7 -2 13 2 13 5 0 41 32 82 70 41
39 78 70 82 70 5 0 38 25 73 55 36 30 73 56 83 56 49 3 75 9 87 19 8 7 20 8
27 4 7 -4 10 -4 6 1 -8 9 9 35 23 35 5 0 6 -8 2 -17 -3 -10 3 -7 12 7 10 14
20 27 22 30 2 2 8 -2 12 -9 6 -8 14 -10 22 -5 8 4 29 7 47 5 23 -2 32 1 28 8
-4 6 -1 11 6 11 7 0 19 14 26 30 8 17 20 30 29 30 10 0 12 6 8 19 -5 15 -1 19
18 17 14 0 23 -6 20 -12 -2 -7 0 -15 6 -19 6 -3 11 2 11 12 0 13 2 15 9 5 5
-9 17 -11 37 -6 l29 7 -27 -30 c-33 -35 -35 -47 -7 -38 16 5 19 4 14 -5 -6 -9
-1 -10 16 -5 20 7 22 6 12 -7 -10 -11 -7 -19 13 -42 21 -22 23 -30 14 -41 -8
-10 -9 -15 -2 -15 6 0 14 5 17 11 4 6 13 8 21 5 8 -3 14 -1 14 5 0 6 9 8 20 4
11 -3 20 -2 20 3 0 15 -25 21 -52 15 -20 -6 -21 -4 -10 9 7 9 10 22 7 31 -4
10 3 18 24 25 28 10 31 9 31 -8 0 -12 9 -22 23 -25 14 -4 30 -20 39 -40 8 -19
11 -32 7 -29 -10 6 -39 -19 -39 -32 0 -5 5 -3 12 4 7 7 19 12 27 12 9 0 23 5
31 10 13 9 13 11 0 19 -8 6 -11 13 -7 17 4 4 13 2 19 -4 7 -7 19 -12 27 -11
11 0 10 3 -4 9 -19 7 -19 8 -1 15 11 5 21 3 26 -5 6 -10 14 -9 38 6 23 15 28
23 21 39 -6 15 -8 16 -8 4 -1 -9 -8 -22 -17 -29 -12 -11 -18 -10 -32 5 -9 10
-11 14 -3 10 10 -6 11 -2 6 14 -10 31 19 51 57 40 31 -8 33 -6 18 22 -7 12 -7
19 -1 19 5 0 13 10 17 22 7 22 28 48 38 48 15 0 3 -33 -19 -56 -14 -14 -23
-30 -20 -35 9 -13 39 -11 53 3 14 14 16 42 2 33 -5 -3 -10 -1 -10 4 0 15 12
14 38 -5 26 -18 30 -3 5 22 -16 16 -16 18 5 34 12 10 22 23 22 29 0 6 5 11 11
11 6 0 9 7 5 15 -4 13 -2 13 14 5 14 -7 23 -6 34 6 9 8 16 20 16 25 0 5 6 9
14 9 15 0 30 56 19 73 -3 6 -1 7 5 3 7 -4 12 -16 12 -27 0 -11 5 -17 10 -14 6
3 10 15 10 26 0 10 5 19 10 19 6 0 10 8 10 18 0 9 12 35 26 57 23 38 24 38 18
10 l-7 -30 22 27 c11 14 21 33 21 42 0 10 6 13 18 9 9 -3 14 -3 10 2 -4 4 8
26 27 48 19 22 35 46 35 53 0 7 6 17 13 21 7 4 21 21 32 37 20 29 28 41 75
109 14 20 28 37 32 37 12 0 67 60 73 81 4 11 9 18 12 16 2 -3 17 8 32 24 16
16 32 29 38 29 5 0 19 11 30 24 24 27 156 116 172 116 6 0 11 5 11 10 0 6 14
10 30 10 17 0 30 4 30 8 0 15 164 56 168 43 3 -8 8 -8 15 -3 20 16 75 22 79
10 3 -8 11 -9 24 -3 10 4 23 7 28 6 4 -1 15 4 23 11 12 10 14 9 12 -3 -3 -22
17 -64 25 -51 3 6 2 13 -4 17 -17 10 -11 25 9 25 27 0 35 -17 17 -36 -9 -8
-16 -19 -16 -24 0 -20 13 -40 27 -40 9 0 13 -6 10 -14 -4 -11 -1 -13 10 -9 12
5 14 1 8 -18 -7 -22 -6 -23 9 -10 15 12 17 12 14 0 -5 -23 75 -16 102 9 13 12
27 19 32 16 5 -3 7 0 6 8 -2 7 2 12 9 11 7 -2 21 11 33 27 12 17 18 30 14 30
-3 0 -1 7 6 15 7 8 16 13 20 10 4 -3 18 9 31 25 13 16 32 30 41 30 9 0 19 9
23 19 3 11 22 32 42 48 20 15 41 33 47 39 6 6 17 9 24 6 6 -2 12 1 12 8 0 6 4
9 9 6 5 -3 7 -33 6 -66z m-6625 -67 c58 -50 162 -183 156 -198 -8 -23 -20 -18
-39 15 -10 17 -22 30 -28 30 -16 0 -10 -20 16 -46 25 -25 33 -54 16 -54 -5 0
-16 10 -24 23 -8 12 -38 46 -66 75 -49 50 -64 86 -39 94 7 3 9 14 4 31 -4 16
-11 24 -19 21 -17 -6 -41 21 -32 36 7 12 11 10 55 -27z m15795 -83 c6 -10
-332 -356 -377 -385 -15 -9 -30 -25 -33 -35 -6 -19 -34 -35 -43 -25 -3 3 59
71 139 153 79 81 175 182 214 225 67 74 87 88 100 67z m-14298 -114 c9 -4 19
-3 22 1 3 4 16 13 27 20 19 10 23 9 29 -10 4 -15 8 -18 12 -9 4 10 11 5 24
-14 15 -24 19 -26 25 -11 9 24 23 21 17 -3 -3 -12 0 -20 6 -20 7 0 10 -4 6
-10 -3 -5 -13 -6 -22 -3 -12 5 -15 2 -10 -10 3 -9 2 -19 -3 -22 -6 -4 -10 1
-10 9 0 9 -4 16 -10 16 -16 0 -12 -15 9 -34 15 -14 21 -15 32 -4 8 7 25 14 39
15 25 1 25 1 -2 -10 -29 -11 -38 -37 -13 -37 9 0 12 -6 9 -15 -4 -8 -9 -13
-13 -12 -3 2 -14 -4 -23 -14 -15 -16 -15 -18 3 -35 10 -9 19 -21 19 -26 0 -13
-26 -38 -39 -38 -6 0 -11 -5 -11 -11 0 -6 -9 -8 -20 -4 -12 4 -28 1 -36 -6
-12 -10 -13 -9 -9 3 4 9 0 18 -9 21 -17 7 -30 -8 -21 -23 10 -16 -5 -12 -23 6
-10 10 -18 12 -20 6 -2 -6 -9 -9 -17 -6 -19 8 -89 -28 -170 -86 -38 -28 -86
-62 -105 -75 -19 -13 -60 -42 -90 -65 -30 -22 -62 -43 -70 -47 -29 -13 -171
-146 -186 -174 -13 -26 -12 -30 8 -49 12 -11 25 -20 29 -20 4 0 9 -9 12 -21 5
-19 4 -20 -19 -4 -20 13 -24 13 -24 1 0 -8 7 -21 15 -30 25 -25 17 -29 -14 -7
-16 12 -33 21 -38 21 -4 0 -14 9 -21 21 l-13 21 -23 -21 c-12 -12 -29 -21 -38
-21 -21 0 -30 27 -18 50 6 10 14 31 20 45 9 23 8 26 -8 21 -20 -7 -48 29 -32
39 23 14 7 50 -50 106 -33 32 -60 53 -60 46 0 -6 -20 -33 -44 -59 -24 -26 -47
-56 -51 -67 -3 -12 -17 -24 -31 -27 -13 -3 -24 -9 -24 -13 0 -3 -16 -24 -35
-46 -19 -22 -35 -46 -35 -53 0 -10 -8 -12 -30 -7 -26 6 -30 3 -36 -22 -8 -32
-51 -73 -76 -73 -9 0 -29 -18 -45 -40 -15 -22 -34 -40 -40 -40 -7 0 -13 -5
-13 -11 0 -6 -7 -9 -15 -5 -10 4 -15 -1 -15 -15 0 -11 -4 -18 -10 -14 -12 7
-50 -16 -50 -32 0 -6 -13 -14 -30 -18 -16 -4 -30 -12 -30 -18 0 -17 -63 -65
-95 -73 -14 -4 -29 -13 -32 -20 -3 -8 -19 -14 -35 -14 -16 0 -42 -8 -56 -18
-15 -10 -39 -24 -54 -32 -16 -7 -28 -17 -28 -22 0 -4 -9 -8 -19 -8 -11 0 -23
-5 -26 -10 -4 -7 -14 -2 -26 12 -16 18 -22 20 -29 9 -6 -10 -20 -12 -53 -8
-24 4 -48 3 -52 -1 -9 -9 -55 -10 -49 -1 2 4 -1 9 -7 11 -13 4 -1 38 15 38 6
0 21 23 34 50 12 28 27 50 32 50 6 0 10 6 10 13 0 7 9 19 20 27 11 8 20 20 20
27 0 7 7 13 15 13 8 0 15 4 15 8 0 5 11 14 24 22 14 7 22 18 20 25 -3 7 5 15
17 18 15 4 20 11 15 22 -6 17 38 64 61 65 7 0 17 9 23 20 6 11 17 20 25 20 8
0 15 4 15 9 0 4 11 20 25 35 13 14 22 32 19 39 -6 17 45 69 62 63 6 -2 27 6
45 20 18 13 39 24 46 24 7 0 13 5 13 10 0 6 13 18 30 29 16 10 27 21 22 25 -4
4 -2 7 3 6 25 -5 40 4 91 54 29 30 63 58 75 61 12 4 39 24 59 45 20 21 47 41
59 45 12 3 19 11 16 16 -3 5 0 6 8 3 9 -3 22 4 31 18 9 12 16 18 16 13 0 -5 5
-4 11 2 6 6 17 9 24 7 7 -3 16 0 21 7 4 7 3 10 -3 6 -12 -7 -63 46 -83 86 -8
16 -27 35 -42 43 -15 8 -28 19 -28 24 0 5 -7 15 -15 24 -13 12 -21 13 -41 4
-21 -10 -27 -8 -45 10 -11 12 -24 22 -29 22 -18 0 -10 47 10 65 19 17 21 17
39 1 11 -10 17 -24 14 -32 -3 -9 1 -14 12 -14 20 0 145 -123 145 -143 1 -17
57 -77 73 -77 7 0 19 9 27 19 7 11 18 17 23 14 5 -3 13 0 17 7 5 7 20 14 34
16 15 1 24 -1 21 -7 -3 -5 1 -6 9 -3 9 4 16 1 16 -6 0 -9 11 -11 35 -7 22 4
35 2 35 -5 0 -7 4 -7 13 1 8 6 17 8 20 4 4 -3 14 0 24 8 15 12 16 12 10 -5 -6
-16 -5 -17 7 -7 17 15 36 7 36 -15 0 -8 5 -14 10 -14 7 0 7 -7 0 -21 -7 -12
-18 -18 -26 -15 -8 3 -14 -1 -14 -9 0 -8 -4 -15 -10 -15 -5 0 -10 -8 -10 -18
0 -17 -87 -105 -113 -115 -8 -3 0 -17 21 -39 17 -19 32 -38 32 -43 0 -6 16
-21 35 -34 20 -13 38 -34 41 -47 4 -13 7 -24 9 -24 17 0 69 39 91 68 50 64
144 158 201 198 152 107 272 197 303 229 19 19 43 35 53 35 25 0 21 18 -5 22
-12 2 -24 10 -26 18 -5 13 -3 13 13 0 10 -8 16 -10 12 -4 -3 6 4 17 17 23 24
13 56 60 56 83 -1 9 -5 7 -14 -5 -13 -16 -14 -16 -20 5 -3 13 -6 26 -6 30 0
12 55 13 58 1 2 -6 10 -14 19 -17z m-2317 -430 c0 5 4 3 9 -5 7 -11 10 -9 16
8 5 15 13 21 28 19 27 -4 42 -61 21 -79 -8 -6 -14 -19 -14 -29 0 -20 -19 -30
-56 -30 -17 0 -27 8 -34 25 -5 13 -18 30 -30 37 -25 16 -25 32 -2 63 l17 23
23 -21 c12 -11 22 -16 22 -11z m15971 -13 c-9 -18 -3 -64 14 -105 9 -22 -25
-86 -64 -120 -38 -34 -45 -35 -37 -3 5 20 3 25 -13 25 -14 0 -19 -5 -14 -15 5
-13 -107 -133 -311 -336 -24 -24 -46 -25 -46 -2 0 15 120 139 250 259 87 80
155 165 166 208 6 22 22 58 35 78 24 37 39 45 20 11z m-8223 -26 c7 3 10 -1 7
-9 -3 -8 0 -15 7 -16 7 0 27 -4 43 -7 17 -3 36 -6 43 -7 6 -1 12 -6 12 -12 0
-6 12 -17 27 -23 21 -10 29 -10 42 0 12 10 13 9 7 -1 -5 -9 -1 -15 13 -19 12
-3 24 -16 27 -29 5 -19 9 -21 30 -14 20 8 24 6 24 -10 0 -13 5 -18 15 -14 11
5 13 2 9 -10 -3 -9 -1 -16 5 -16 6 0 29 -12 51 -26 29 -20 40 -34 42 -57 2
-26 7 -32 24 -30 17 2 21 -2 17 -17 -3 -11 0 -20 6 -20 6 0 9 -13 7 -31 -3
-22 3 -39 18 -56 27 -31 35 -62 24 -91 -5 -15 -3 -32 6 -50 11 -20 16 -23 19
-12 14 41 16 42 14 10 -1 -26 -7 -35 -19 -35 -10 0 -25 -8 -35 -18 -10 -9 -12
-17 -6 -17 7 0 15 5 18 10 3 6 11 10 17 10 7 0 7 -4 0 -13 -7 -8 -6 -18 4 -31
12 -17 12 -22 -6 -38 -11 -10 -20 -25 -20 -32 0 -8 -14 -19 -30 -25 -17 -5
-34 -20 -40 -33 -5 -13 -9 -17 -9 -10 -1 22 -21 13 -39 -17 -15 -28 -79 -58
-91 -44 -4 3 0 8 7 10 6 3 12 9 12 14 0 5 -11 4 -24 -2 -16 -8 -23 -17 -19
-28 5 -13 3 -14 -8 -3 -18 17 -30 15 -23 -3 4 -8 1 -15 -5 -15 -7 0 -31 -9
-54 -19 -24 -11 -55 -23 -70 -26 -46 -12 -30 10 23 30 28 11 50 23 50 27 0 12
-11 10 -43 -7 -15 -8 -34 -12 -42 -8 -8 3 -15 1 -15 -3 0 -5 -15 -15 -32 -22
-18 -7 -45 -19 -60 -27 -28 -14 -45 -5 -32 17 4 7 3 8 -5 4 -18 -12 -61 -14
-61 -4 0 5 10 19 21 31 20 20 21 21 15 2 -5 -15 -4 -17 4 -8 8 7 9 17 3 28 -8
14 -11 15 -22 1 -11 -13 -16 -12 -37 12 -21 24 -23 25 -24 7 0 -16 -2 -17 -10
-5 -6 9 -5 17 3 22 16 10 -1 26 -41 37 -30 9 -31 9 -20 -15 9 -18 8 -28 0 -36
-9 -9 -12 -6 -12 12 -1 31 -19 54 -45 58 -11 2 -23 9 -26 14 -12 19 -19 -10
-9 -37 13 -34 13 -35 -6 -35 -8 0 -12 5 -9 10 4 6 1 18 -6 26 -9 11 -9 20 0
42 9 18 9 28 2 30 -6 2 -9 8 -5 13 3 5 0 9 -6 9 -6 0 -13 -7 -16 -15 -11 -28
-20 -15 -18 28 1 35 -3 46 -29 69 -25 23 -28 30 -17 43 11 13 10 19 -4 33 -16
16 -17 16 -10 0 3 -11 1 -18 -5 -18 -6 0 -11 5 -11 10 0 6 -7 10 -15 10 -10 0
-15 10 -15 29 0 15 -10 41 -22 57 -13 15 -17 25 -10 20 7 -4 15 -1 18 8 3 9
13 16 22 16 13 0 10 6 -11 25 -15 14 -27 34 -26 43 0 13 3 11 9 -5 13 -33 24
-28 16 8 -4 21 -1 35 9 46 9 8 13 23 10 33 -3 10 -1 21 5 25 5 3 7 17 4 29 -6
24 17 43 37 30 5 -3 9 1 9 8 1 18 48 51 62 42 8 -5 9 2 4 22 -5 23 -4 25 4 12
16 -26 33 -23 20 2 -9 16 -7 26 8 45 14 17 22 21 30 13 8 -8 15 -6 27 6 20 19
32 20 39 4 3 -9 10 -6 24 9 13 15 23 18 33 12 21 -13 32 -11 25 6 -6 16 35 32
53 21 5 -4 12 -2 16 4 4 7 16 4 33 -8 15 -11 33 -17 40 -15z m3458 -268 c3 -6
18 -9 33 -6 15 3 58 -2 96 -12 71 -19 93 -41 81 -83 -2 -10 -1 -18 4 -18 14 0
30 27 24 43 -11 29 15 27 70 -5 60 -36 73 -53 26 -35 -41 15 -49 1 -17 -29 15
-14 27 -29 27 -34 0 -6 6 -10 14 -10 8 0 16 -7 20 -15 3 -8 28 -25 55 -39 28
-13 62 -38 76 -55 15 -18 32 -28 40 -24 8 3 15 0 15 -5 0 -6 9 -13 19 -17 10
-3 21 -15 24 -25 5 -20 27 -28 27 -10 0 34 126 -18 179 -74 33 -36 34 -37 21
-76 -7 -22 -16 -40 -20 -40 -4 0 -10 -9 -13 -20 -3 -11 -20 -27 -39 -34 -19
-8 -40 -26 -48 -40 -7 -14 -18 -26 -24 -26 -6 0 -74 -61 -150 -135 -77 -74
-145 -135 -153 -135 -8 0 -13 12 -13 29 0 16 -7 34 -15 41 -13 10 -15 9 -15
-11 0 -13 -6 -35 -13 -49 -7 -14 -14 -41 -16 -60 -6 -76 -17 -115 -31 -112
-21 5 -70 -19 -70 -34 0 -8 -5 -14 -11 -14 -6 0 -8 -8 -5 -17 5 -15 -2 -18
-47 -21 -28 -2 -56 -7 -61 -12 -17 -17 -41 -11 -108 23 -51 26 -78 34 -129 35
-51 1 -67 6 -81 22 -9 11 -19 20 -22 20 -4 0 -25 9 -49 20 -23 10 -59 21 -79
23 -20 2 -44 9 -52 16 -8 7 -20 9 -27 5 -7 -4 -10 -2 -7 7 3 8 12 13 21 11 8
-1 18 2 22 8 3 5 -2 10 -12 10 -23 0 -46 35 -38 59 4 15 -1 18 -36 19 -23 1
-48 7 -56 13 -16 14 -83 19 -83 7 0 -5 4 -7 9 -3 6 3 13 -10 17 -29 3 -20 12
-40 20 -47 19 -15 18 -33 -2 -25 -8 3 -12 2 -9 -4 10 -16 -18 -50 -37 -44 -13
4 -21 -3 -30 -23 -9 -22 -12 -24 -15 -10 -4 15 -12 9 -45 -28 -38 -43 -70 -57
-83 -35 -3 6 -21 10 -40 10 -19 0 -37 4 -40 10 -9 15 22 55 63 83 20 13 52 39
69 56 18 17 37 31 43 31 15 0 12 20 -2 21 -35 3 -66 -5 -118 -32 -32 -16 -65
-29 -73 -29 -9 0 -19 -5 -22 -10 -4 -6 -15 -8 -26 -5 -11 4 -19 2 -19 -4 0 -6
-16 -11 -35 -11 -28 0 -33 -3 -28 -17 5 -12 2 -15 -10 -10 -9 3 -17 2 -17 -3
0 -6 -6 -10 -14 -10 -8 0 -16 -6 -19 -12 -3 -10 -7 -10 -20 1 -12 9 -17 10
-17 2 0 -7 -8 -11 -17 -10 -19 3 -113 -39 -124 -55 -4 -5 -14 -6 -24 -3 -9 4
-36 -4 -62 -18 -26 -13 -50 -22 -55 -19 -4 3 -8 0 -8 -5 0 -17 -37 -13 -54 5
-15 14 -16 13 -16 -6 0 -19 -4 -21 -27 -15 -34 8 -53 9 -120 3 -42 -4 -57 -1
-73 14 -25 23 -30 23 -30 -2 0 -17 -7 -20 -43 -20 -57 0 -122 45 -132 89 -10
46 -55 64 -55 23 0 -13 109 -124 256 -263 58 -54 114 -117 114 -127 0 -4 17
-18 38 -31 20 -14 56 -45 79 -69 42 -44 79 -69 145 -98 37 -16 64 -49 30 -37
-9 3 -21 9 -27 13 -5 5 -35 21 -65 38 -30 16 -71 39 -90 51 -71 43 -88 40 -51
-10 16 -22 20 -34 12 -42 -7 -7 -27 2 -65 29 -31 21 -65 43 -75 49 -11 5 -22
18 -25 29 -3 11 -8 17 -12 13 -4 -4 -14 -1 -23 5 -9 7 -6 1 7 -13 12 -14 22
-31 22 -37 0 -7 8 -12 18 -12 16 -1 16 -1 -1 -14 -11 -9 -37 -12 -72 -10 -41
3 -60 -1 -75 -13 -20 -18 -65 -29 -56 -14 9 14 -25 36 -51 33 -35 -5 -83 17
-76 34 5 13 -7 18 -34 15 -7 -1 -13 7 -13 19 0 11 -4 20 -10 20 -5 0 -10 6
-10 13 0 8 -11 24 -24 36 -15 14 -22 30 -19 42 3 10 0 19 -6 19 -6 0 -11 5
-11 11 0 7 -8 17 -17 24 -15 11 -15 15 -4 29 11 14 11 16 -2 16 -28 0 -47 -12
-47 -30 0 -24 30 -80 46 -87 16 -6 19 -43 4 -43 -5 0 -7 -7 -4 -15 4 -8 17
-15 30 -15 21 0 23 -4 19 -23 -4 -15 -1 -28 9 -36 9 -8 16 -25 16 -40 0 -14 4
-32 9 -39 4 -7 6 -24 3 -37 -4 -22 -8 -23 -51 -18 -25 3 -57 5 -70 5 -15 0
-25 7 -28 19 -3 10 -9 16 -14 13 -5 -3 -7 -9 -5 -13 9 -14 -63 -9 -75 5 -15
19 -30 18 -23 -1 8 -21 -3 -19 -28 5 -21 19 -21 19 -49 -1 -16 -11 -30 -17
-31 -12 0 4 -2 14 -2 20 -2 22 -19 19 -21 -3 -1 -18 -37 -64 -50 -64 -3 0 -5
7 -5 15 0 8 7 15 16 15 24 0 12 35 -14 38 -13 2 -22 10 -22 20 0 10 -10 23
-21 31 -19 11 -21 11 -16 -3 9 -22 -2 -46 -20 -46 -9 0 -13 6 -9 15 4 12 2 13
-13 6 -16 -9 -17 -7 -13 15 2 13 8 27 13 30 15 9 10 24 -7 24 -13 0 -15 5 -8
23 4 12 7 44 7 71 0 50 -6 59 -79 115 -15 12 -65 -14 -87 -45 -18 -24 -18 -26
0 -52 20 -30 25 -60 11 -68 -5 -3 -4 -11 2 -19 6 -8 12 -27 12 -43 1 -18 6
-28 12 -26 6 2 21 -14 34 -36 l22 -40 -40 -6 c-25 -4 -40 -12 -40 -21 0 -8 -5
-11 -11 -7 -6 3 -9 15 -6 25 3 11 0 22 -6 27 -16 10 -37 48 -37 67 0 8 -4 15
-10 15 -5 0 -10 6 -10 14 0 17 -18 31 -27 22 -4 -3 0 -14 9 -23 23 -28 15
-103 -11 -103 -9 0 -20 29 -26 67 -2 12 -11 33 -20 46 -22 34 -17 101 8 105
12 3 17 -3 17 -22 0 -14 5 -26 10 -26 13 0 13 13 -1 44 -10 20 -17 24 -40 19
-23 -4 -30 0 -42 23 -15 29 -17 97 -4 110 3 4 10 -1 14 -11 12 -33 38 -51 76
-52 34 -1 37 1 37 27 0 20 6 29 21 33 12 3 18 10 14 16 -3 6 1 11 9 11 18 0
22 -16 5 -22 -5 -2 -7 -11 -4 -21 5 -12 18 -17 46 -17 21 0 39 5 39 10 0 6 -6
10 -12 10 -7 0 2 10 20 22 26 16 30 23 20 30 -11 8 -11 10 0 15 10 4 10 9 -3
23 -16 17 -15 19 6 31 20 10 25 9 37 -10 8 -11 25 -21 38 -21 28 0 32 -15 8
-28 -12 -7 -13 -11 -5 -16 7 -4 17 -3 24 2 7 5 21 11 33 14 18 5 20 2 16 -20
-5 -24 -3 -25 32 -19 44 7 67 0 60 -18 -3 -7 0 -16 6 -20 16 -10 41 15 38 38
-3 19 -19 27 -60 30 -11 1 -16 9 -15 27 2 22 -1 24 -30 22 -23 -3 -34 2 -42
16 -14 27 -7 30 42 22 23 -5 45 -6 49 -4 12 7 10 58 -2 70 -7 7 -7 27 1 63 10
48 9 54 -10 75 -22 23 -28 56 -11 56 6 0 10 6 10 14 0 7 7 19 15 26 21 17 19
27 -6 35 -13 5 -25 1 -33 -10 -11 -15 -13 -15 -25 -1 -9 11 -10 16 -2 16 6 0
11 8 11 18 0 28 20 42 51 35 26 -5 29 -3 29 21 0 34 37 77 49 58 6 -10 16 -8
47 10 21 12 44 29 50 37 6 7 17 12 25 9 14 -5 49 31 49 51 0 6 6 11 13 12 6 0
27 2 45 5 20 2 32 0 32 -8 0 -15 15 0 15 15 0 7 8 11 18 9 9 -2 17 1 17 5 0 5
14 14 30 21 19 9 30 21 30 33 0 14 4 18 13 12 25 -16 66 -11 72 8 3 10 30 30
60 44 29 15 56 34 59 42 5 11 15 14 37 9 20 -4 28 -2 23 5 -4 7 3 10 17 8 13
-2 30 0 37 5 15 9 72 -2 72 -15 0 -5 7 -9 16 -9 8 0 12 -4 9 -10 -8 -14 8 -13
22 1 6 6 22 17 35 23 12 6 24 21 26 33 3 21 32 41 32 22 0 -6 7 -3 16 5 8 9
20 16 26 16 5 0 8 7 4 15 -6 18 5 20 22 3 8 -8 8 -16 0 -32 -14 -25 -11 -92 5
-118 17 -27 36 -22 55 14 9 17 32 46 50 64 17 18 32 38 32 46 0 7 4 19 9 27 8
12 13 12 24 3 11 -10 19 -8 40 8 14 11 32 20 40 20 9 0 19 9 22 20 3 11 13 20
21 20 8 0 14 5 14 10 0 7 6 7 20 0 16 -9 18 -8 14 5 -5 13 -1 15 22 9 16 -4
40 -11 54 -16 14 -5 27 -9 29 -8 2 1 8 -5 13 -14 5 -9 16 -16 23 -16 8 0 15
-7 15 -16 0 -9 8 -23 18 -30 21 -15 24 -61 4 -69 -12 -4 -12 -8 -1 -21 11 -14
10 -15 -7 -12 -15 2 -19 -2 -17 -25 2 -23 -1 -26 -11 -18 -9 8 -13 7 -13 -2 0
-6 -4 -21 -9 -31 -5 -14 -4 -17 4 -12 8 5 10 2 6 -9 -9 -23 13 -43 41 -37 18
3 25 0 25 -11 0 -8 7 -17 15 -21 10 -3 15 1 15 14 0 17 2 18 28 4 35 -18 61
-18 83 2 10 9 34 16 53 16 20 0 33 4 30 9 -3 5 -10 6 -16 3 -6 -4 -9 -1 -6 7
3 8 15 13 27 12 26 -3 27 5 4 23 -10 7 -13 14 -6 14 6 0 15 -4 18 -10 11 -18
47 -11 52 10 3 11 9 20 14 20 5 0 9 7 9 15 0 8 5 15 10 15 17 0 61 48 50 55
-15 9 -12 25 5 25 8 0 15 9 15 20 0 27 54 100 91 123 16 11 29 25 29 33 0 8 5
14 10 14 6 0 10 6 10 13 0 7 20 27 45 45 38 27 45 37 45 66 0 34 21 63 39 52
10 -6 3 -46 -8 -44 -18 2 -24 -3 -12 -11 10 -7 23 -3 39 10 14 10 30 19 36 19
6 0 38 14 70 30 61 31 100 38 112 19z m-1906 -58 c0 -5 -12 -12 -26 -15 -14
-4 -43 -18 -65 -31 -21 -14 -41 -25 -45 -25 -3 0 -29 -18 -56 -40 -28 -22 -56
-40 -63 -40 -23 0 -149 -60 -201 -97 -50 -34 -53 -34 -77 -18 -23 15 -28 45
-7 45 4 0 37 17 71 38 58 35 145 76 344 161 69 30 125 40 125 22z m-6926 -107
c13 -5 16 -22 16 -81 l0 -74 -82 -81 c-102 -100 -146 -120 -168 -78 -8 15 -7
27 5 49 8 17 15 38 15 47 0 23 54 109 99 158 28 30 72 60 98 66 1 0 8 -3 17
-6z m3182 -267 c-25 -25 -48 -57 -52 -71 -3 -14 -12 -26 -19 -26 -8 0 -24 -20
-36 -45 -30 -60 -17 -73 42 -42 81 42 208 89 224 83 9 -3 15 0 15 7 0 8 25 24
55 36 45 19 58 21 70 11 8 -7 15 -17 15 -22 0 -7 -5 -6 -13 0 -17 15 -117 -31
-117 -53 0 -13 -4 -14 -20 -5 -25 13 -100 -22 -107 -51 -4 -15 -9 -16 -24 -8
-24 12 -99 -24 -106 -52 -6 -23 -11 -24 -36 -1 -15 13 -21 14 -24 4 -6 -15
-75 -61 -118 -78 -16 -7 -60 -24 -97 -38 -37 -14 -75 -30 -85 -35 -10 -5 -89
-39 -175 -75 -141 -58 -161 -64 -188 -54 -23 8 -43 7 -76 -2 -49 -14 -63 -32
-44 -55 8 -10 9 -15 1 -15 -6 0 -18 12 -27 26 -15 22 -15 27 -3 35 12 8 11 11
-3 23 -10 7 -18 20 -18 28 0 9 -7 29 -15 44 -21 41 -19 51 16 58 17 3 43 15
59 26 15 11 35 20 43 20 8 0 36 9 62 21 27 12 58 19 73 16 27 -5 61 9 75 31 4
6 16 12 25 12 15 0 42 11 136 57 20 10 32 11 40 3 13 -13 36 -13 56 0 13 9 12
12 -5 26 -25 19 -22 21 115 75 58 22 155 65 215 95 61 30 111 50 113 45 2 -6
-17 -30 -42 -54z m-7513 -214 c-11 -47 -6 -74 13 -66 23 9 25 -20 5 -78 -12
-37 -16 -61 -10 -70 8 -12 11 -11 20 5 9 15 13 16 20 5 5 -8 9 -17 9 -20 0
-12 -54 -69 -65 -69 -13 0 -75 53 -75 64 0 14 30 37 39 31 25 -15 42 79 23
127 -10 24 -8 79 4 117 3 11 8 11 16 3 7 -7 8 -23 1 -49z m-222 -53 c13 0 19
-7 19 -23 0 -13 5 -28 12 -35 8 -8 9 -18 1 -34 -55 -119 -85 -162 -106 -155
-6 2 -22 29 -35 61 -21 48 -23 62 -13 77 10 17 7 24 -21 49 -32 29 -32 29 -12
51 17 19 26 21 78 15 32 -3 67 -6 77 -6z m14486 -72 c-2 -171 4 -299 13 -293
19 12 -22 -68 -87 -167 -84 -129 -109 -176 -118 -219 -4 -19 -11 -38 -15 -44
-4 -5 -14 -30 -21 -55 -7 -25 -16 -49 -19 -55 -4 -5 -13 -27 -19 -47 -18 -56
-29 -61 -95 -38 -72 26 -199 31 -241 10 -28 -15 -46 -52 -37 -77 2 -7 17 -13
33 -13 20 0 27 -4 23 -14 -3 -8 4 -33 15 -57 26 -53 26 -59 2 -59 -13 0 -21 8
-23 23 -5 37 -47 24 -98 -32 -25 -27 -61 -58 -80 -69 -19 -11 -48 -34 -64 -51
-32 -34 -57 -39 -75 -17 -10 12 -18 9 -46 -20 -19 -19 -45 -34 -57 -34 -41 0
-97 -20 -127 -45 -16 -14 -35 -25 -43 -25 -8 0 -23 -19 -34 -42 -16 -35 -23
-43 -44 -41 -14 1 -36 0 -50 -3 l-25 -6 23 -12 c28 -15 19 -26 -24 -26 -24 0
-33 -5 -37 -21 -9 -33 3 -49 34 -49 35 0 35 -2 5 -35 -17 -19 -37 -27 -68 -30
-23 -2 -90 -8 -148 -14 -58 -6 -139 -13 -180 -15 -43 -2 -101 -13 -135 -26
-33 -12 -78 -27 -101 -33 -70 -21 -136 -72 -222 -172 -33 -39 -41 -44 -33 -22
7 17 7 36 1 52 -6 16 -6 58 1 117 6 51 13 114 16 141 3 26 0 62 -6 80 -7 17
-15 66 -18 108 l-6 76 27 7 c15 4 31 4 36 1 6 -4 10 5 10 18 0 14 7 27 15 31
17 6 20 42 5 51 -5 3 2 17 18 31 16 15 21 24 12 23 -35 -3 -40 1 -23 21 10 11
22 20 28 20 5 0 3 -5 -5 -11 -13 -9 -13 -10 2 -6 9 3 18 1 21 -6 2 -6 6 -3 10
7 4 9 3 15 -2 11 -15 -9 -24 14 -12 29 6 7 8 16 4 20 -4 3 2 13 13 22 10 8 12
12 4 8 -10 -5 -9 -1 3 14 l19 21 -44 -14 c-23 -7 -52 -16 -63 -20 -11 -4 -6 2
10 12 17 11 102 46 190 77 88 32 259 107 380 166 267 131 339 163 475 210 142
50 154 57 239 145 83 86 178 144 316 191 44 15 108 46 143 70 35 24 67 44 72
44 11 0 282 204 300 225 22 26 27 17 27 -47z m-6869 4 c2 -15 -1 -20 -11 -16
-8 3 -92 -31 -188 -76 -96 -45 -178 -82 -183 -83 -6 -1 -12 6 -14 16 -3 13 12
24 59 45 34 15 117 53 183 84 67 31 128 56 136 55 8 -1 16 -12 18 -25z m-362
-211 c-10 -11 -31 -23 -46 -26 -15 -3 -49 -19 -74 -36 -26 -16 -50 -29 -54
-29 -14 0 -132 -55 -132 -61 0 -4 9 -5 20 -2 32 9 23 -3 -20 -26 -62 -32 -87
-28 -105 16 -19 45 -14 60 21 69 19 5 31 2 39 -10 7 -9 16 -16 21 -16 12 0 90
36 198 92 50 26 104 47 120 48 28 0 29 -1 12 -19z m2857 -70 c13 -30 15 -45 7
-65 -8 -21 -7 -28 5 -32 18 -7 45 13 45 33 0 26 38 -5 42 -34 3 -29 11 -31 56
-17 18 5 22 3 22 -17 0 -13 -7 -37 -15 -52 -11 -21 -12 -34 -4 -48 5 -11 7
-24 4 -29 -12 -19 -36 -10 -68 23 -18 19 -39 36 -47 39 -8 3 -11 9 -7 14 4 4
17 2 29 -5 16 -10 19 -10 16 0 -2 7 -19 20 -36 28 -17 9 -30 22 -27 29 2 6 -2
12 -10 12 -8 0 -15 -7 -15 -15 0 -30 -37 -8 -61 36 -11 22 -9 118 3 135 15 20
42 4 61 -35z m-1506 -13 c54 -13 121 -81 102 -104 -9 -11 -9 -14 0 -14 39 0
-54 -61 -119 -79 -137 -37 -242 -60 -300 -66 -36 -4 -82 -11 -103 -16 -89 -23
-219 -4 -270 39 -16 14 -45 16 -111 8 -21 -3 -36 4 -63 30 -30 29 -34 39 -31
76 3 47 2 45 123 99 42 19 65 22 145 19 138 -3 409 6 418 15 9 8 169 4 209 -7z
m10013 -159 c21 -121 22 -150 16 -367 -5 -202 -20 -365 -33 -381 -2 -3 -10 4
-18 15 -13 16 -16 17 -25 4 -5 -8 -10 -10 -10 -4 0 10 -41 23 -75 25 -16 0
-39 -6 -52 -14 -13 -8 -14 -5 -17 33 -1 8 -7 40 -13 70 -7 30 -19 100 -28 155
-8 55 -20 118 -25 140 -5 22 -7 73 -4 113 3 45 1 72 -6 72 -24 0 -5 30 58 92
73 72 193 177 203 178 3 0 16 -59 29 -131z m-12676 65 c9 -3 16 -12 16 -19 0
-7 14 -40 32 -74 36 -71 32 -94 -19 -99 -17 -2 -39 -12 -49 -23 -9 -10 -23
-19 -30 -19 -7 0 -25 -11 -41 -24 -30 -25 -271 -146 -291 -146 -8 0 -9 7 -2
25 15 39 -11 31 -38 -11 -22 -33 -106 -84 -141 -84 -24 0 9 31 54 51 57 25
105 80 105 118 0 17 4 31 9 31 5 0 7 8 5 18 -4 13 12 26 64 55 38 20 73 37 76
37 9 0 -32 -61 -51 -76 -19 -16 -5 -46 18 -39 13 5 17 2 14 -8 -14 -34 78 1
99 38 6 11 15 23 20 27 6 3 11 19 14 35 2 15 8 33 14 40 5 7 7 17 4 22 -4 5
10 22 31 36 l38 26 -39 -7 c-21 -3 -52 -14 -70 -25 -33 -20 -56 -25 -56 -11 0
5 41 27 90 50 50 23 90 46 90 52 0 11 11 13 34 4z m-994 -54 c12 -7 12 -12 -4
-29 -32 -35 -18 -71 41 -103 51 -28 83 -29 83 -1 0 8 4 12 10 8 10 -6 -33 -94
-53 -107 -17 -11 -75 -10 -82 2 -3 6 -14 10 -24 10 -23 0 -131 108 -131 130 0
57 112 121 160 90z m-547 -14 c52 -4 64 -10 127 -60 38 -31 75 -67 82 -80 78
-141 88 -179 68 -250 -6 -24 -32 -68 -56 -97 -24 -30 -44 -57 -44 -61 0 -5 -4
-8 -9 -8 -5 0 -22 -5 -38 -11 -15 -6 -28 -9 -29 -7 0 2 -8 -3 -17 -10 -9 -8
-21 -11 -27 -7 -5 3 -10 0 -10 -8 0 -16 -41 -37 -71 -37 -11 0 -17 5 -14 10 8
13 -7 13 -40 0 -57 -22 -243 -11 -265 15 -6 8 -18 11 -26 8 -9 -3 -14 1 -14
13 0 10 -20 36 -43 59 -43 39 -51 58 -63 145 -3 19 -11 41 -19 50 -17 19 -20
46 -6 54 5 4 12 28 16 56 5 38 14 56 36 74 16 14 28 30 27 37 -3 11 115 77
140 78 7 1 31 10 55 20 23 11 48 21 55 23 14 3 98 1 185 -6z m-5088 -62 c11
-15 15 -16 41 -2 61 30 214 18 228 -19 15 -38 -13 -64 -69 -63 -11 1 -50 -2
-87 -6 -42 -4 -73 -3 -80 3 -7 6 -27 14 -44 17 -32 7 -35 18 -20 64 9 26 15
27 31 6z m2584 -94 c29 15 34 13 59 -26 21 -32 27 -35 53 -30 17 3 37 13 45
21 9 8 21 16 27 16 7 1 21 3 32 5 70 13 81 13 95 2 24 -21 50 -66 50 -88 0
-17 6 -20 43 -20 46 0 107 -31 107 -55 0 -19 -86 -105 -105 -105 -8 0 -15 -4
-15 -9 0 -13 -63 -22 -150 -22 -107 0 -202 -25 -270 -71 -40 -27 -68 -38 -94
-38 -20 0 -36 -4 -36 -10 0 -5 6 -10 14 -10 7 0 27 -7 42 -15 16 -8 43 -15 59
-15 29 0 64 -7 250 -51 44 -10 91 -16 103 -12 16 4 22 1 22 -12 0 -9 6 -15 13
-12 6 2 22 0 35 -4 12 -5 82 -21 155 -35 73 -14 145 -33 161 -41 68 -35 204
-75 302 -88 12 -2 32 -10 45 -18 13 -9 47 -21 74 -28 59 -14 83 -25 111 -50
11 -10 42 -25 68 -33 86 -26 109 -70 61 -116 -14 -13 -25 -27 -25 -31 0 -13
104 -192 141 -241 18 -26 39 -47 46 -47 6 -1 14 -10 18 -21 3 -11 32 -43 65
-72 32 -29 59 -60 60 -68 6 -37 1 -40 -75 -40 -74 0 -75 0 -92 -32 -26 -49
-53 -129 -53 -158 0 -14 -7 -34 -15 -44 -8 -11 -15 -27 -15 -35 0 -8 -8 -33
-19 -55 -39 -85 -51 -134 -56 -219 -1 -29 -10 -95 -19 -147 -25 -143 -29 -163
-31 -184 -1 -10 -9 -24 -17 -30 -9 -6 -18 -27 -21 -46 -3 -19 -9 -51 -12 -71
-5 -23 -3 -39 4 -43 32 -20 -1 -116 -66 -192 -150 -174 -179 -197 -190 -155
-3 12 -10 21 -17 22 -30 2 -50 9 -63 22 -12 12 -12 20 3 58 9 24 30 57 47 73
27 26 30 34 28 80 -1 28 -12 72 -23 98 l-20 48 -42 -6 c-52 -8 -120 -46 -147
-84 -31 -41 -57 -48 -209 -56 -74 -3 -148 -7 -165 -9 -41 -3 -113 -28 -201
-71 -40 -20 -78 -33 -84 -29 -20 12 10 116 43 153 9 10 17 24 17 30 0 7 4 20
9 30 5 9 13 28 19 42 5 14 18 42 27 64 30 68 35 94 18 100 -8 4 -13 13 -9 21
8 21 -23 34 -81 36 -42 2 -63 -5 -129 -42 -43 -24 -96 -53 -116 -64 -21 -11
-104 -59 -185 -106 -225 -131 -263 -146 -386 -154 -50 -4 -96 -10 -101 -15
-11 -11 -36 -1 -36 15 0 7 7 15 15 19 8 3 15 13 15 22 0 10 6 25 14 33 7 9 16
28 20 44 5 23 3 27 -14 27 -15 0 -20 7 -20 28 0 43 -36 71 -90 71 -47 -1 -178
-34 -195 -50 -5 -5 -19 -9 -32 -9 -14 0 -23 -6 -23 -16 0 -8 -4 -13 -9 -9 -5
3 -30 1 -54 -5 -24 -5 -71 -12 -103 -15 -139 -12 -240 -37 -262 -64 -10 -13
-11 -10 -6 22 4 25 3 37 -5 37 -7 0 -9 5 -5 12 5 8 2 9 -11 5 -9 -4 -23 -3
-29 2 -17 14 -178 40 -195 31 -31 -15 -87 -32 -133 -41 -55 -11 -88 1 -88 31
0 38 169 130 238 130 21 0 23 2 12 15 -10 13 -8 19 14 36 40 32 56 49 56 63 0
6 21 29 46 51 25 22 60 52 77 67 16 15 77 50 134 78 90 44 124 70 94 70 -21 0
-17 30 7 57 45 48 85 72 265 152 95 42 226 109 292 148 126 74 302 158 395
188 63 20 261 121 272 138 4 6 0 19 -8 28 -7 8 -14 21 -14 27 0 7 -3 11 -7 10
-5 -1 -17 3 -29 9 -17 10 -21 20 -18 52 2 28 -2 44 -16 56 -11 10 -17 21 -15
25 12 19 -40 36 -117 39 -14 1 -17 8 -14 34 2 17 4 39 5 47 1 14 49 43 136 82
68 30 65 66 -8 103 -28 14 -56 25 -63 25 -17 0 -202 78 -256 108 -27 15 -48
32 -48 38 0 6 -7 17 -15 24 -15 13 -21 60 -7 60 4 0 8 18 8 39 2 38 1 39 -45
51 -120 32 -160 43 -206 61 -28 10 -58 19 -67 19 -16 0 -32 36 -19 44 4 3 40
-2 81 -10 41 -8 111 -22 155 -30 44 -9 96 -19 115 -24 19 -5 55 -12 79 -15 24
-3 49 -9 55 -14 6 -5 36 -12 66 -14 30 -3 68 -10 83 -16 16 -6 36 -11 45 -11
28 1 66 39 67 67 0 21 10 31 44 50 24 13 37 23 28 23 -10 0 -17 6 -17 13 0 7
-10 17 -22 22 -20 9 -22 18 -23 106 -1 56 3 102 9 111 6 7 34 23 61 35 44 18
53 19 78 6 20 -10 32 -11 46 -3z m19535 -137 c14 -15 31 -40 37 -56 14 -34 2
-47 -46 -47 -79 0 -240 -25 -327 -51 -53 -16 -105 -29 -116 -29 -12 0 -28 -10
-36 -22 -14 -19 -25 -23 -81 -23 -71 0 -92 13 -74 46 13 26 11 33 -6 19 -15
-12 -39 -5 -30 10 3 4 -2 13 -10 20 -10 9 -12 18 -4 38 8 20 7 28 -6 34 -23
13 -18 30 6 23 12 -4 60 0 108 9 139 25 384 52 498 55 56 1 65 -2 87 -26z
m163 -219 l24 -15 -23 -18 c-15 -12 -50 -21 -98 -26 -74 -7 -125 -27 -134 -52
-9 -22 34 -15 66 12 16 14 40 25 52 25 31 0 88 -20 105 -38 12 -12 12 -15 0
-23 -15 -9 -7 -12 28 -9 13 1 34 -10 48 -24 22 -22 25 -31 19 -63 -4 -21 -10
-40 -13 -43 -10 -8 -10 -40 0 -40 5 0 9 -9 9 -19 0 -11 4 -22 8 -25 5 -3 14
-31 21 -63 7 -32 17 -67 22 -78 5 -11 11 -30 14 -42 2 -12 9 -31 15 -43 10
-18 9 -22 -9 -27 -12 -3 -21 -14 -21 -24 0 -11 -5 -19 -11 -19 -5 0 -7 -5 -3
-12 5 -8 2 -9 -12 -4 -52 22 -57 21 -50 -9 9 -35 -4 -45 -59 -45 -22 0 -57 -5
-78 -11 -41 -11 -70 1 -61 25 7 19 -47 41 -57 24 -6 -8 -9 -9 -9 -2 0 7 -8 14
-19 17 -14 3 -17 11 -14 31 4 17 0 28 -10 32 -9 3 -13 12 -11 19 4 10 -1 12
-18 8 -22 -5 -22 -5 -4 9 22 17 15 68 -9 68 -8 0 -15 3 -16 8 0 4 -2 14 -4 24
-8 43 18 109 60 152 51 52 68 110 38 131 -25 18 -33 10 -33 -35 0 -54 -8 -70
-36 -70 -14 0 -43 -9 -64 -20 -22 -11 -40 -19 -40 -17 0 2 11 17 25 33 14 16
25 35 25 42 0 7 6 21 13 33 10 17 9 22 -6 34 -15 11 -16 15 -4 22 14 8 41 119
32 133 -11 17 8 39 33 39 15 0 56 4 92 9 79 12 146 7 177 -14z m-15877 -54
c-21 -17 -22 -20 -7 -20 36 0 10 -24 -88 -78 -95 -52 -213 -97 -224 -86 -3 3
7 15 22 28 19 16 24 26 15 29 -20 7 -3 19 95 72 114 61 244 100 187 55z
m-1805 -187 c9 -36 22 -43 57 -31 37 13 49 2 14 -13 -27 -13 -33 -37 -16 -67
6 -9 19 -38 30 -64 12 -30 26 -48 36 -48 12 0 14 -5 9 -17 -5 -10 -10 -33 -13
-51 -2 -18 -8 -34 -12 -37 -10 -6 -55 64 -47 72 3 3 0 12 -8 19 -15 15 -55
116 -55 139 0 8 -4 15 -10 15 -5 0 -10 25 -10 55 0 58 13 73 25 28z m11224
-120 c-13 -15 -48 -52 -77 -82 -30 -30 -108 -114 -175 -185 -137 -147 -187
-196 -199 -196 -4 0 -8 15 -8 33 0 29 7 39 48 67 54 39 95 77 233 213 54 53
101 97 104 97 3 0 21 18 41 40 20 22 41 40 47 40 6 0 0 -12 -14 -27z m-3006
-42 c35 -39 67 -91 67 -109 0 -6 -11 -13 -25 -16 -33 -8 -32 -22 5 -41 32 -16
41 -45 14 -45 -8 0 -34 12 -57 28 -76 49 -81 52 -133 76 -46 22 -51 27 -52 60
-1 35 -1 36 37 36 27 0 44 7 61 25 13 14 29 25 36 25 6 0 28 -18 47 -39z
m-5973 -131 c0 -14 -23 -64 -34 -71 -5 -4 -6 -17 -3 -29 4 -16 3 -19 -7 -10
-17 13 -41 -13 -32 -35 6 -17 26 -21 26 -5 0 6 8 10 18 10 19 0 48 -62 38 -79
-4 -5 0 -11 6 -14 10 -3 8 -9 -5 -24 -19 -22 -14 -81 9 -90 7 -2 10 -12 7 -20
-5 -13 -9 -11 -24 8 -10 13 -19 31 -19 40 0 9 -7 23 -16 30 -9 8 -32 47 -51
89 -34 74 -34 76 -17 105 40 69 104 128 104 95z m-867 -316 c-15 -7 -57 -73
-50 -80 2 -3 1 -20 -3 -39 -6 -25 -4 -38 7 -46 8 -7 10 -15 4 -18 -8 -6 -15
-40 -12 -68 1 -7 7 -10 15 -7 7 3 16 -1 19 -10 3 -8 -1 -17 -9 -20 -9 -3 -12
-10 -9 -16 3 -5 -1 -10 -10 -10 -8 0 -18 -7 -21 -15 -4 -8 -10 -12 -15 -9 -5
3 -7 10 -4 15 4 5 2 9 -3 9 -15 0 -30 -44 -22 -65 4 -11 5 -24 3 -28 -3 -4 0
-13 5 -20 5 -7 10 -31 10 -54 1 -48 -21 -78 -47 -67 -9 4 -28 9 -43 12 -16 2
-28 9 -28 14 0 5 -7 16 -15 24 -8 9 -15 11 -15 5 0 -6 -5 -11 -11 -11 -6 0 -8
9 -4 21 5 15 1 25 -14 36 -12 8 -19 18 -16 22 2 5 -7 21 -21 36 -13 15 -32 38
-41 51 -10 15 -22 23 -32 19 -11 -3 -20 5 -30 26 -18 42 -51 70 -73 63 -37
-11 -16 6 55 45 39 21 97 49 127 61 30 12 77 36 105 53 48 31 164 76 195 76 9
-1 11 -2 3 -5z m5532 -65 c-4 -6 1 -17 11 -25 18 -14 18 -15 -6 -8 -22 6 -22
5 -9 -9 16 -15 64 -13 75 4 3 5 13 9 22 9 15 -1 14 -3 -3 -16 -11 -8 -20 -26
-20 -39 -1 -28 5 -31 23 -13 8 8 16 6 30 -12 13 -16 21 -20 26 -12 4 8 0 12
-11 13 -10 0 -6 4 11 9 23 7 32 5 42 -8 15 -19 19 -56 5 -48 -5 3 -16 -5 -25
-19 -14 -21 -14 -24 -1 -19 8 4 15 2 15 -4 0 -5 -7 -12 -15 -16 -24 -9 -18
-28 6 -21 13 4 25 2 29 -5 5 -7 16 -10 25 -6 17 6 17 8 0 26 -23 26 -15 26 15
0 19 -17 21 -23 12 -50 -8 -22 -8 -30 1 -30 7 0 26 -11 42 -25 l30 -25 -30 4
c-16 2 -22 1 -13 -1 9 -2 20 -12 23 -22 6 -21 45 -69 45 -56 0 4 7 2 15 -5 16
-13 21 -65 5 -55 -5 3 -5 -7 1 -25 10 -28 39 -43 39 -20 0 6 -4 10 -9 10 -6 0
-9 9 -8 20 2 24 17 27 17 4 0 -9 7 -22 17 -29 21 -16 9 -35 -18 -28 -18 5 -20
3 -14 -16 3 -12 2 -21 -4 -21 -5 0 -13 9 -16 21 -4 11 -9 18 -13 15 -3 -3 0
-16 6 -29 6 -12 12 -31 14 -42 2 -11 12 -24 24 -29 24 -11 45 -51 33 -63 -5
-5 -2 -21 5 -35 16 -30 15 -61 -3 -98 -11 -22 -10 -23 2 -7 20 24 36 21 43 -9
4 -15 12 -23 19 -20 10 3 15 -15 20 -72 4 -42 9 -86 11 -97 11 -53 25 -188 39
-369 8 -109 17 -201 19 -203 2 -3 17 17 32 44 15 26 36 59 46 73 21 28 146
221 195 302 18 29 44 67 58 83 l26 30 -17 -40 c-35 -85 -43 -111 -44 -145 0
-37 -49 -148 -93 -214 -15 -21 -27 -51 -27 -67 0 -15 -14 -52 -31 -81 -43 -72
-199 -279 -216 -285 -8 -3 -11 -13 -8 -23 3 -10 1 -21 -5 -25 -6 -4 -10 4 -10
19 0 28 -6 31 -29 17 -12 -7 -12 -15 -2 -38 6 -15 10 -40 9 -54 -3 -35 71
-182 125 -247 50 -60 57 -90 57 -248 0 -50 4 -114 10 -143 5 -28 12 -93 16
-144 3 -50 7 -98 9 -104 3 -9 -9 -13 -40 -13 -39 0 -50 5 -97 50 -29 28 -73
62 -96 77 l-44 26 -121 -120 c-67 -65 -143 -138 -169 -161 l-48 -42 35 0 c49
0 50 -14 5 -53 -22 -18 -40 -38 -40 -44 0 -20 84 -105 138 -140 43 -27 63 -34
88 -30 24 4 44 -2 85 -27 49 -29 55 -36 60 -74 6 -45 5 -44 34 -60 11 -6 14
-12 7 -12 -23 0 -64 50 -59 71 3 12 -1 23 -13 29 -25 13 -30 13 -30 -4 0 -16
-64 -41 -79 -32 -5 4 -16 0 -24 -8 -19 -19 -31 -8 -14 12 11 13 9 14 -11 1
-20 -12 -24 -12 -32 1 -6 10 -10 11 -10 3 0 -23 -18 -13 -34 19 -9 17 -16 32
-16 32 0 1 15 1 33 1 19 0 31 5 30 11 -1 8 6 10 19 6 14 -3 19 -1 14 6 -4 7
-12 12 -18 12 -5 0 -21 9 -35 20 -26 20 -26 20 -43 0 -15 -18 -19 -18 -30 -5
-10 12 -10 15 4 15 9 0 16 6 16 13 0 15 -49 61 -57 53 -3 -2 4 -10 15 -17 l21
-13 -21 -18 c-24 -21 -37 -16 -18 7 13 16 1 21 -16 6 -5 -5 -19 -12 -31 -16
-19 -5 -23 -3 -23 17 0 13 7 33 15 44 17 25 11 34 -22 34 -12 0 -23 5 -23 10
0 19 -21 10 -30 -12 -5 -13 -9 -17 -9 -10 -1 9 -9 11 -23 8 -16 -4 -15 -2 5 7
29 14 25 26 -13 40 -11 4 -10 6 5 7 11 1 26 2 33 1 6 -1 12 2 12 7 0 15 -35
20 -55 9 -15 -8 -22 -5 -37 17 -11 14 -25 26 -32 26 -17 0 -37 46 -29 67 4 13
0 11 -16 -6 -24 -28 -38 -23 -21 8 9 17 8 21 -6 21 -13 0 -14 3 -5 13 13 17 4
28 -17 20 -11 -5 -13 -3 -7 6 4 7 3 16 -3 20 -6 3 -13 24 -17 46 -4 25 -3 35
3 27 6 -9 9 -4 9 17 0 22 -4 28 -15 23 -12 -4 -14 -1 -9 12 6 14 4 17 -10 11
-30 -11 -35 -11 -41 4 -3 8 0 11 7 7 6 -4 11 -3 11 3 0 5 -4 12 -9 15 -12 8
-6 86 9 118 11 23 10 29 -4 44 -10 9 -15 23 -12 31 4 8 3 20 -1 26 -4 7 -8 29
-9 50 -1 22 2 34 6 28 8 -14 40 -3 40 14 0 20 27 39 33 23 4 -8 6 -7 6 5 1 9
6 17 12 17 6 0 9 7 5 15 -6 16 28 40 58 40 10 0 24 9 30 20 6 11 14 22 17 25
11 9 -10 51 -23 48 -13 -2 -68 29 -80 47 -4 5 -8 6 -8 2 0 -10 -30 18 -30 28
0 4 5 5 12 3 6 -2 27 11 47 29 34 31 67 45 134 57 15 3 42 12 60 21 17 9 59
25 92 36 33 12 74 29 90 39 17 9 47 20 67 23 20 3 45 13 55 22 47 42 82 65 98
65 12 0 15 5 10 20 -3 11 -2 20 4 20 5 0 9 15 9 33 -2 44 7 111 16 126 5 7 0
18 -10 26 -11 7 -19 19 -20 27 -3 31 -17 56 -40 68 -15 9 -26 26 -30 47 -4 19
-13 37 -20 40 -8 3 -14 15 -14 26 0 20 0 20 -21 -2 -23 -25 -31 -22 -33 10 -1
22 -8 26 -74 33 -18 2 -42 12 -52 21 -17 16 -22 16 -49 2 -34 -17 -41 -12 -13
9 15 12 15 15 2 23 -10 7 -17 6 -22 -2 -4 -7 -10 -2 -17 14 -11 31 -24 37 -71
33 -19 -1 -40 2 -47 7 -7 7 -13 6 -17 0 -9 -14 -38 -1 -60 26 -10 13 -21 22
-24 19 -2 -3 1 -13 9 -22 12 -15 12 -17 -1 -12 -9 3 -15 17 -15 33 0 16 -6 30
-12 32 -7 3 -13 -2 -13 -11 0 -10 -6 -13 -15 -10 -8 4 -15 13 -15 22 0 8 -3
12 -7 9 -3 -4 -13 2 -21 14 -11 16 -17 18 -28 8 -8 -6 -18 -9 -22 -5 -4 4 2
14 12 22 11 8 15 14 9 14 -5 0 -18 -9 -28 -20 -10 -11 -22 -20 -28 -20 -5 0
-7 9 -4 20 3 11 1 20 -5 20 -5 0 -12 -9 -15 -20 -3 -11 -8 -20 -12 -20 -13 0
-42 82 -35 102 5 17 3 18 -14 9 -14 -7 -23 -8 -27 -1 -3 5 1 10 9 10 9 0 16 5
16 11 0 5 -5 7 -12 3 -7 -5 -9 -2 -5 8 4 11 -1 18 -14 21 -14 4 -19 14 -19 39
0 25 -3 29 -10 18 -5 -8 -7 -23 -4 -33 7 -22 -12 -47 -37 -47 -11 0 -19 -5
-19 -12 0 -6 3 -8 7 -5 8 8 33 -11 33 -25 0 -7 -5 -6 -13 1 -8 6 -17 8 -20 4
-4 -3 2 -12 13 -20 11 -8 20 -19 20 -25 0 -7 -5 -6 -15 2 -8 6 -19 9 -25 5 -5
-3 -10 -2 -10 4 0 6 -6 8 -14 5 -7 -3 -16 2 -19 10 -4 10 -1 13 9 9 8 -3 15 1
16 8 4 38 19 79 29 79 5 0 9 -4 9 -10 0 -5 7 -10 15 -10 9 0 12 6 9 15 -4 8
-12 15 -19 15 -15 0 -22 23 -21 68 1 32 -21 51 -44 37 -5 -3 -10 -2 -10 4 0
14 36 24 60 16 24 -8 27 10 4 23 -11 6 -15 17 -11 31 3 11 1 19 -4 15 -5 -3
-9 -14 -9 -25 0 -17 -6 -21 -26 -18 -4 0 -11 -5 -15 -13 -7 -10 -9 -9 -9 4 0
21 17 32 23 16 3 -7 6 -8 6 -3 0 6 -4 17 -9 25 -8 12 -12 12 -18 2 -7 -10 -11
-10 -22 3 -16 19 -30 20 -30 1 0 -7 10 -16 22 -19 l22 -6 -24 -26 c-13 -14
-26 -22 -29 -19 -3 4 0 9 7 11 19 7 14 24 -5 21 -13 -2 -18 4 -19 22 0 14 -6
24 -12 23 -15 -4 -16 13 -2 22 6 3 10 1 10 -4 0 -6 6 -11 13 -11 9 0 13 15 13
48 -1 41 2 47 22 50 12 2 22 8 22 13 0 5 5 9 10 9 6 0 10 -6 10 -14 0 -9 8
-12 24 -9 13 3 32 0 42 -5 22 -12 44 12 36 40 -4 17 -6 18 -28 3 -13 -8 -24
-12 -24 -7 0 5 -7 9 -15 9 -8 0 -15 -4 -15 -9 0 -5 -9 -7 -19 -3 -11 3 -22 1
-26 -5 -4 -6 -14 -9 -22 -6 -8 3 -24 -3 -35 -14 -27 -25 -35 -25 -43 -1 -3 11
-15 19 -30 19 -28 0 -31 -8 -13 -26 9 -9 9 -12 1 -12 -14 0 -27 36 -19 49 3 5
16 7 29 5 21 -4 21 -4 -2 6 -19 8 -21 13 -11 25 6 7 17 12 24 9 7 -3 18 2 25
10 7 8 18 13 25 10 7 -3 22 4 34 14 19 17 20 21 7 32 -8 7 -12 17 -8 23 4 6 0
8 -10 4 -18 -7 -22 10 -11 51 4 15 14 22 30 22 19 0 24 5 24 25 0 14 4 25 10
25 5 0 7 -13 4 -30 -4 -18 -2 -30 4 -30 5 0 9 -7 8 -16 0 -9 5 -19 13 -22 11
-3 12 0 6 14 -4 11 -9 30 -11 44 -3 24 -3 24 8 -2 7 -16 16 -28 22 -28 5 0 6
3 3 7 -4 3 -2 12 5 20 8 11 7 12 -6 7 -11 -4 -16 -1 -16 10 0 9 -11 22 -25 28
-32 15 -32 28 1 28 18 0 28 6 31 20 5 18 12 20 54 16 38 -3 47 -2 42 10 -4 10
0 12 12 8 10 -4 21 -1 26 7 13 20 11 29 -6 29 -38 0 -3 31 39 36 18 1 19 1 2
-11 -12 -9 -14 -15 -5 -20 6 -4 15 -2 19 4 4 7 11 11 16 10 17 -4 44 13 44 27
0 8 -4 14 -10 14 -5 0 -14 10 -21 22 -9 17 -9 20 4 15 8 -3 25 2 37 10 19 13
24 13 31 2 6 -10 11 -11 17 -3 12 17 122 2 122 -17 0 -5 7 -9 16 -9 14 0 14 1
0 16 -22 21 -20 27 4 14 16 -8 18 -8 14 4 -7 17 -44 29 -44 13 0 -6 -10 -1
-23 11 -23 22 -32 52 -15 52 17 0 46 34 40 48 -4 11 -1 14 11 9 11 -4 14 -2
10 9 -3 7 -1 14 5 14 19 0 23 -33 6 -52 -10 -10 -15 -20 -12 -23 7 -7 35 26
42 53 5 13 3 22 -3 22 -18 0 -12 14 12 29 20 13 21 13 8 -3 -8 -9 -11 -20 -7
-24 4 -4 13 1 21 11 11 15 14 16 25 2 10 -12 10 -19 2 -27 -19 -19 -14 -25 18
-25 20 0 30 5 30 15 0 12 3 12 15 2 9 -8 15 -9 15 -2 0 6 -5 14 -10 17 -6 4
-8 12 -4 18 3 7 -1 4 -9 -5 -17 -22 -27 -23 -27 -3 0 8 -4 15 -10 15 -14 0
-12 46 3 58 6 5 21 12 32 15 11 2 21 5 23 6 2 0 0 -4 -3 -10z m12781 -185 c57
-30 86 -53 79 -65 -8 -11 -76 -3 -120 15 -58 24 -100 19 -217 -29 -14 -5 -18
-2 -18 12 0 33 124 89 201 92 14 1 48 -11 75 -25z m-19040 -37 c-4 -19 0 -26
19 -35 15 -7 22 -17 19 -26 -3 -8 4 -21 16 -29 20 -14 20 -15 -15 -31 -19 -9
-35 -21 -35 -25 0 -12 -161 -149 -195 -167 -15 -8 -38 -14 -51 -14 -24 0 -28
8 -25 43 1 9 -2 17 -8 17 -6 0 -8 7 -4 16 3 9 0 20 -7 24 -8 5 -10 14 -5 26 5
11 9 24 10 29 1 22 32 53 70 72 89 45 105 55 100 62 -7 13 27 38 65 49 51 15
53 14 46 -11z m18549 -354 c-3 -16 -14 -37 -24 -48 -21 -24 -54 -232 -64 -405
-2 -25 -13 -61 -26 -82 -19 -31 -20 -40 -11 -59 10 -18 9 -24 -4 -31 -17 -10
-22 -43 -7 -52 9 -6 59 8 97 26 24 11 78 3 110 -17 12 -8 39 -17 60 -20 69
-12 142 -36 153 -49 22 -26 2 -46 -46 -46 -49 0 -161 26 -180 41 -6 6 -31 9
-55 8 -58 -3 -169 28 -190 53 -16 18 -16 22 -1 56 18 41 36 132 52 262 15 121
36 204 65 264 14 29 26 59 26 67 0 19 28 59 42 59 6 0 8 -11 3 -27z m-6554
-33 c35 -35 33 -58 -10 -103 -42 -46 -56 -50 -100 -28 -84 43 -96 88 -32 121
22 11 42 24 46 30 13 21 66 10 96 -20z m-11212 -47 c39 -23 50 -52 25 -70 -16
-12 -16 -13 -1 -13 12 0 17 -8 17 -26 0 -19 -4 -25 -14 -21 -8 3 -16 1 -19 -6
-4 -12 -115 -18 -188 -9 -40 5 -92 40 -71 49 7 2 19 11 26 19 8 8 19 14 24 14
5 0 17 9 27 20 10 11 14 20 10 20 -20 0 16 23 47 30 54 13 85 11 117 -7z
m17883 -21 c17 -7 28 -21 33 -41 4 -17 13 -35 22 -39 12 -7 13 -13 4 -31 -9
-16 -9 -21 1 -21 7 0 -2 -14 -21 -31 -30 -28 -39 -31 -83 -27 -70 7 -91 30
-86 94 4 43 10 57 37 81 33 31 48 33 93 15z m-18224 -26 c9 -5 1 -17 -24 -37
-20 -16 -41 -29 -45 -29 -5 0 -9 -6 -9 -14 0 -16 -27 -29 -41 -20 -5 3 -9 0
-9 -5 0 -14 -26 -14 -67 1 -26 9 -33 18 -33 38 1 41 25 64 78 70 61 7 135 6
150 -4z m10562 -177 c56 -28 205 -138 222 -163 5 -7 8 -4 8 6 0 9 -4 20 -10
23 -5 3 -10 11 -10 17 0 6 9 3 20 -7 11 -10 20 -24 20 -30 0 -7 6 -15 13 -18
19 -7 49 -87 33 -87 -7 0 -17 5 -24 12 -9 9 -15 9 -24 0 -9 -9 -9 -15 0 -24
16 -16 15 -28 -2 -28 -9 0 -23 26 -36 68 -24 73 -35 92 -56 92 -12 0 -12 -5 1
-30 21 -41 19 -87 -4 -100 -36 -19 -58 -11 -97 37 -50 61 -60 80 -68 137 -7
43 -6 46 15 46 l22 0 -23 25 c-13 14 -29 25 -36 25 -6 0 -17 7 -24 15 -18 21
-8 19 60 -16z m861 -199 c38 -20 49 -36 49 -75 0 -29 -15 -41 -77 -63 -61 -21
-128 -91 -138 -144 -8 -41 0 -64 18 -50 7 5 27 12 46 16 48 9 61 23 61 67 0
27 6 42 22 53 29 20 41 10 34 -28 -4 -17 -6 -44 -6 -59 1 -44 -17 -65 -58 -73
-20 -3 -50 -14 -67 -24 -16 -9 -38 -15 -47 -13 -9 2 -28 -3 -42 -12 -33 -22
-63 -14 -104 25 -18 17 -32 32 -32 35 0 15 54 114 65 118 7 3 16 26 19 51 9
55 31 71 88 62 35 -6 39 -4 48 20 7 19 7 37 -1 61 -21 66 30 79 122 33z
m-2907 -72 c-5 -7 -32 -41 -61 -76 -29 -34 -53 -66 -53 -70 0 -5 -25 -33 -55
-63 -30 -30 -55 -60 -55 -66 0 -7 -6 -13 -14 -13 -8 0 -17 -12 -21 -27 -6 -26
-21 -42 -37 -43 -3 0 -16 16 -28 35 l-22 36 29 22 c15 12 61 53 102 90 94 87
210 187 217 187 3 0 2 -6 -2 -12z m1716 -140 c24 -40 21 -52 -11 -53 -25 0
-44 -29 -61 -94 -22 -82 -22 -84 26 -132 31 -33 48 -43 55 -36 15 15 25 -16
17 -57 -8 -42 -33 -67 -47 -45 -7 11 -9 10 -9 -5 0 -16 -5 -17 -37 -11 -21 3
-49 14 -63 22 l-24 16 24 11 c14 6 31 19 38 28 7 10 19 18 27 18 26 0 24 17
-5 56 -16 21 -30 44 -30 50 0 28 -54 31 -77 5 -9 -11 -21 -18 -25 -14 -5 3
-12 -3 -14 -14 -3 -10 -23 -28 -45 -41 -21 -12 -39 -29 -39 -37 0 -20 -31 -19
-110 4 -60 17 -65 20 -63 45 3 49 38 90 85 103 24 6 52 20 63 30 25 23 122 83
134 83 5 0 16 6 23 13 7 6 36 23 63 37 28 14 54 30 58 37 13 21 26 15 47 -19z
m6172 -187 c24 -6 40 -5 49 3 25 23 0 -91 -51 -234 -29 -80 -64 -176 -77 -215
-63 -176 -86 -226 -119 -255 -19 -16 -34 -35 -34 -41 0 -6 -7 -8 -16 -5 -11 4
-18 -1 -21 -14 -3 -11 -9 -20 -13 -20 -5 0 -16 -3 -24 -6 -17 -7 -18 18 -2 45
20 32 -36 34 -61 2 -7 -9 -13 -11 -13 -5 0 6 3 14 7 18 12 12 12 40 1 54 -9
10 -8 16 1 22 8 4 10 13 7 19 -4 6 2 22 12 36 12 15 18 34 15 45 -3 12 0 20 7
20 10 0 10 3 1 14 -9 11 -9 15 0 18 15 5 20 69 6 86 -12 15 -2 99 14 118 9 11
8 14 -2 14 -8 0 -6 5 5 13 14 10 17 23 14 50 -2 19 0 33 4 31 4 -3 8 4 8 15 0
12 5 21 11 21 6 0 8 8 4 19 -9 30 52 86 95 86 26 -1 41 6 58 27 25 30 50 34
114 19z m-5048 -69 c33 -35 43 -88 26 -146 -15 -53 -42 -80 -92 -94 -51 -14
-73 10 -65 70 3 24 2 52 -3 63 -8 21 31 112 54 127 22 15 53 7 80 -20z m4579
-314 c24 -19 30 -68 9 -91 -23 -25 -77 -47 -118 -47 -97 0 -90 117 8 140 50
12 83 11 101 -2z m-20845 -111 c18 -14 14 -68 -6 -95 -25 -33 -81 -39 -109
-12 -23 21 -30 64 -14 88 11 18 81 41 101 34 8 -3 21 -9 28 -15z m2887 -175
c25 -18 46 -55 66 -112 10 -31 9 -41 -10 -75 -27 -51 -39 -66 -79 -94 -66 -46
-157 -21 -212 59 -19 28 -24 48 -25 101 0 78 9 92 80 126 41 20 60 23 103 18
30 -3 64 -13 77 -23z m20006 -132 c3 -40 -1 -84 -9 -97 -11 -17 -82 3 -100 28
-7 11 -20 19 -28 19 -20 0 -17 37 5 69 16 22 26 27 49 23 17 -2 33 1 37 8 11
17 43 -18 46 -50z m-8390 -20 c15 -8 18 -17 13 -38 -4 -15 -13 -34 -20 -43 -8
-8 -14 -20 -14 -26 0 -17 -87 -102 -116 -113 -33 -13 -54 2 -54 38 0 41 40 89
93 111 38 16 48 26 53 51 7 32 15 36 45 20z m-247 -246 c10 -4 16 -18 16 -36
0 -36 -66 -108 -99 -108 -13 0 -26 -11 -36 -29 -35 -68 -75 -82 -75 -26 0 50
30 103 89 158 48 45 71 54 105 41z m-5269 -227 c68 1 114 -14 151 -50 34 -33
54 -90 48 -140 -2 -18 1 -25 8 -21 8 5 9 1 5 -10 -4 -10 -7 -22 -7 -27 0 -6
-4 -8 -9 -5 -5 3 -14 -15 -21 -39 -7 -25 -18 -45 -25 -45 -7 0 -20 -11 -30
-24 -11 -15 -25 -22 -36 -19 -11 3 -19 0 -19 -6 0 -5 -6 -8 -14 -5 -7 3 -16
-2 -19 -10 -5 -12 -16 -15 -41 -12 -23 3 -39 0 -47 -10 -10 -12 -24 -14 -60
-9 -27 4 -54 3 -61 -1 -7 -5 -27 -7 -45 -5 -24 2 -34 -3 -43 -20 -8 -13 -15
-18 -19 -11 -5 8 -18 7 -46 -2 -43 -15 -117 -28 -180 -32 -65 -4 -225 -31
-285 -49 -30 -9 -74 -18 -97 -22 -24 -3 -43 -10 -43 -15 0 -5 -6 -8 -12 -5 -7
2 -26 -3 -43 -11 -16 -8 -43 -19 -60 -23 -16 -4 -55 -17 -85 -28 -61 -23 -110
-27 -110 -10 0 6 -7 9 -15 5 -8 -3 -15 -2 -15 3 0 4 -16 19 -36 34 -29 20 -37
33 -39 61 -1 20 2 36 8 36 5 0 3 7 -4 17 -8 9 -14 35 -14 58 -1 44 -1 44 71
80 21 11 53 30 71 43 17 12 40 22 51 22 12 0 27 8 34 18 21 27 84 57 215 100
67 23 136 48 153 57 16 8 30 13 30 11 0 -3 20 4 44 15 24 10 51 16 60 13 9 -3
22 -2 29 4 6 5 59 20 117 32 58 12 134 28 170 37 123 29 165 35 208 30 27 -3
42 -1 42 7 0 6 4 5 9 -3 6 -9 26 -14 56 -14z m8655 -192 c21 -25 1 -75 -49
-125 -74 -74 -101 -83 -160 -54 -30 15 -38 27 -55 81 -10 32 85 94 141 91 21
0 48 4 59 10 26 16 49 15 64 -3z m-9886 -81 c9 -8 14 -20 11 -25 -3 -4 -39
-24 -80 -44 -41 -19 -108 -51 -148 -70 -77 -36 -157 -55 -157 -37 0 37 183
146 281 167 19 4 41 11 49 16 21 12 26 11 44 -7z m-4093 -130 c-20 -65 -42
-119 -47 -120 -5 0 -22 -6 -37 -12 -16 -7 -30 -12 -33 -12 -3 0 -17 -8 -32
-19 -15 -10 -60 -26 -101 -36 -40 -9 -94 -29 -120 -44 -65 -37 -221 -97 -221
-84 0 3 -6 1 -12 -5 -18 -14 -128 -33 -142 -25 -6 4 -19 6 -29 5 -9 -2 -20 4
-23 12 -3 9 -10 14 -14 11 -14 -8 -20 41 -10 72 10 27 65 71 83 65 4 -1 7 2 7
8 0 5 11 10 25 10 14 0 25 5 25 10 0 6 6 10 14 10 8 0 38 12 66 26 29 14 57
27 64 28 6 1 18 6 26 11 8 6 23 14 32 20 127 76 162 95 172 95 6 0 20 6 31 14
42 28 127 48 219 50 52 2 72 6 80 19 6 9 11 15 13 13 1 -1 -15 -56 -36 -122z
m13909 -317 c57 -32 79 -51 92 -78 10 -22 29 -41 47 -49 17 -7 31 -19 31 -26
0 -26 -71 12 -121 64 -48 49 -69 55 -69 20 0 -19 80 -179 105 -208 7 -8 16
-26 20 -39 4 -14 16 -38 26 -55 43 -71 2 -91 -60 -30 -20 19 -48 41 -61 47
-20 10 -26 22 -30 57 -5 42 -7 46 -43 54 -32 8 -39 15 -48 50 -6 23 -16 48
-23 56 -7 8 -23 41 -36 73 -21 55 -22 59 -5 77 17 18 40 27 80 28 11 0 54 -18
95 -41z"/>
<path d="M16530 9427 c0 -19 59 -50 112 -58 44 -7 294 -133 336 -169 73 -63
132 -99 132 -80 0 36 -66 119 -96 120 -15 0 -49 39 -41 47 4 4 13 0 20 -8 6
-8 30 -28 51 -45 104 -78 139 -107 168 -139 18 -21 39 -35 53 -35 31 0 107
-83 103 -113 -2 -15 -9 -21 -20 -19 -19 3 -22 -6 -10 -26 5 -7 16 -10 25 -6 9
3 17 2 17 -4 0 -5 -6 -12 -14 -15 -28 -11 7 -97 41 -97 16 0 17 -17 1 -23 -9
-3 -8 -9 5 -18 9 -8 19 -29 22 -48 5 -46 55 -161 68 -158 6 1 12 -5 13 -13 2
-30 4 -32 19 -20 13 11 15 6 15 -39 0 -32 4 -50 10 -46 6 3 10 15 10 26 0 10
5 19 10 19 6 0 10 -6 10 -14 0 -19 14 -28 34 -20 13 5 15 14 10 43 -3 20 -12
46 -20 58 -8 12 -14 30 -14 39 0 10 -12 33 -26 52 -25 32 -27 41 -29 161 l-2
126 -47 98 c-34 71 -51 97 -62 93 -8 -3 -38 14 -69 39 -53 43 -73 45 -60 5 8
-27 -7 -25 -33 3 -72 77 -129 127 -145 127 -11 0 -46 17 -79 37 -51 32 -62 35
-72 23 -6 -9 -22 -14 -35 -12 -18 3 -22 0 -18 -12 4 -9 2 -16 -3 -16 -5 0 -62
25 -126 56 -64 31 -133 57 -153 58 -20 2 -53 10 -73 19 -28 12 -38 13 -38 4z"/>
<path d="M17807 9390 c8 -17 19 -30 24 -30 6 0 18 -8 27 -17 16 -16 16 -16 -1
-10 -26 10 -18 -24 8 -38 32 -17 95 -85 101 -110 4 -15 15 -25 35 -29 18 -3
33 -14 38 -28 5 -13 26 -40 47 -60 62 -59 104 -107 104 -118 0 -5 5 -10 10
-10 6 0 4 13 -5 30 -8 16 -15 34 -15 40 0 26 -76 123 -179 230 -61 63 -114
123 -117 132 -6 20 -24 25 -24 7 0 -6 -15 0 -34 15 l-34 26 15 -30z"/>
<path d="M25585 5523 c-3 -21 -12 -49 -19 -63 -9 -17 -12 -52 -9 -110 7 -124
7 -129 -1 -195 -11 -81 -9 -108 9 -121 8 -6 19 -22 24 -35 7 -16 10 70 10 269
1 160 -1 292 -4 292 -2 0 -7 -17 -10 -37z"/>
</g>
</svg>
